<svg xmlns="http://www.w3.org/2000/svg" viewBox="0 0 500 500"><g id="freepik--background-simple--inject-374"><path d="M462,355.38c27.74-55.46,29.61-129.35,10.46-188.6C456,115.78,419.28,76.87,376.9,53.7,327.73,26.83,269.12,18.83,216.35,35.79c-13.88,4.46-27.39,8.55-40.48,15.88-53.65,30.05-43.3,104.1-62.12,129.85-15.83,21.67-46.12,15.28-65.21,31.89C-3,258.22-3.11,371.49,56.34,406.89,119.4,444.46,393.29,492.75,462,355.38Z" style="fill:#92E3A9"></path><path d="M462,355.38c27.74-55.46,29.61-129.35,10.46-188.6C456,115.78,419.28,76.87,376.9,53.7,327.73,26.83,269.12,18.83,216.35,35.79c-13.88,4.46-27.39,8.55-40.48,15.88-53.65,30.05-43.3,104.1-62.12,129.85-15.83,21.67-46.12,15.28-65.21,31.89C-3,258.22-3.11,371.49,56.34,406.89,119.4,444.46,393.29,492.75,462,355.38Z" style="fill:#fff;opacity:0.8"></path></g><g id="freepik--Floor--inject-374"><path d="M475.33,458.71H36.45a.5.5,0,0,1-.5-.5.5.5,0,0,1,.5-.5H475.33a.51.51,0,0,1,.5.5A.5.5,0,0,1,475.33,458.71Z" style="fill:#263238"></path></g><g id="freepik--Picture--inject-374"><g style="opacity:0.30000000000000004"><path d="M446.92,174.88H357.75a.5.5,0,0,1-.5-.5V54.57a.5.5,0,0,1,.5-.5h89.17a.5.5,0,0,1,.5.5V174.38A.5.5,0,0,1,446.92,174.88Zm-88.67-1h88.17V55.07H358.25Z"></path><path d="M429,150.79h-53.3a.5.5,0,0,1-.5-.5V78.67a.5.5,0,0,1,.5-.5H429a.5.5,0,0,1,.5.5v71.62A.5.5,0,0,1,429,150.79Zm-52.8-1h52.3V79.17h-52.3Z"></path></g></g><g id="freepik--Window--inject-374"><path d="M320.35,26.62a5.49,5.49,0,0,0-5.19,3.74H46.49a5.5,5.5,0,1,0,0,3.52H315.16a5.49,5.49,0,1,0,5.19-7.26Z" style="opacity:0.2"></path><g style="opacity:0.2"><path d="M61.47,335.35c-10,0-15.46-3.55-15.69-3.7a.52.52,0,0,1-.22-.44l.65-16.4.92-42.05c1.71-78.07,3.47-158.8,4.68-237.9l1,0c-1.21,79.1-3,159.83-4.68,237.9l-.92,42.06L46.57,331c1.14.66,6.34,3.39,14.9,3.39,10.12,0,24,0,33-.9,8.13-.81,23-.9,25.84-.91l.39-17.7c-2.32-53.64-4.46-108.64-6.52-161.82-1.5-38.77-3.06-78.86-4.67-118.13l1,0c1.61,39.27,3.17,79.36,4.67,118.13,2.06,53.18,4.2,108.18,6.51,161.85l-.39,18.22a.5.5,0,0,1-.5.49c-.17,0-17.3,0-26.23.91C85.51,335.35,71.61,335.35,61.47,335.35Z"></path><rect x="61.6" y="304.44" width="10.97" height="1" transform="translate(-238.11 370.83) rotate(-89.78)"></rect><rect x="-34.38" y="187.24" width="203.95" height="1" transform="translate(-120.41 254.61) rotate(-89.78)"></rect><rect x="44.74" y="55.74" width="46.88" height="1" transform="translate(11.67 124.2) rotate(-89.78)"></rect><rect x="14.8" y="207.33" width="135.8" height="1" transform="translate(-126.4 287.27) rotate(-89.1)"></rect><rect x="35.87" y="82.23" width="97.44" height="1" transform="translate(0.63 166.1) rotate(-89.16)"></rect><rect x="97.93" y="177.7" width="1" height="126.03" transform="translate(-1.09 0.45) rotate(-0.26)"></rect><rect x="97.42" y="88.21" width="1" height="79.15" transform="translate(-0.58 0.45) rotate(-0.26)"></rect><rect x="97.1" y="35.24" width="1" height="43.23" transform="translate(-0.26 0.44) rotate(-0.26)"></rect></g><g style="opacity:0.2"><path d="M294.9,333.48H256.41c-7.5,0-19.23-1.77-19.35-1.78a.5.5,0,0,1-.42-.51c1.88-52.23,4.12-105.79,6.29-157.59,1.91-45.54,3.88-92.63,5.61-138.75l1,0c-1.73,46.12-3.7,93.21-5.61,138.76-2.16,51.64-4.4,105-6.28,157.12a159.92,159.92,0,0,0,18.76,1.71H294.9a108.77,108.77,0,0,0,17.31-1.76q-.61-34.8-1.17-69.83c-1.2-74.17-2.45-150.87-4.77-226l1,0c2.32,75.15,3.56,151.85,4.77,226q.57,35.22,1.18,70.25a.51.51,0,0,1-.41.5A111.72,111.72,0,0,1,294.9,333.48Z"></path><rect x="291.49" y="299.46" width="1" height="10.97" transform="translate(-1.33 1.28) rotate(-0.25)"></rect><rect x="290.97" y="85.77" width="1" height="203.95" transform="translate(-0.82 1.28) rotate(-0.25)"></rect><rect x="290.4" y="32.8" width="1" height="46.88" transform="translate(-0.24 1.28) rotate(-0.25)"></rect><rect x="275.87" y="139.93" width="1" height="135.8" transform="translate(-3.11 4.2) rotate(-0.87)"></rect><rect x="273.98" y="34.02" width="1" height="97.44" transform="translate(-1.22 4.16) rotate(-0.87)"></rect><rect x="197.63" y="240.21" width="126.03" height="1" transform="translate(18.91 500.41) rotate(-89.78)"></rect><rect x="221.58" y="127.28" width="79.15" height="1" transform="translate(132.1 388.31) rotate(-89.72)"></rect><rect x="239.86" y="56.35" width="43.23" height="1" transform="translate(203.35 318.05) rotate(-89.72)"></rect></g><g style="opacity:0.2"><path d="M138.79,93.38H113.55v-1h24.74V61.84H111.75v-1h27a.5.5,0,0,1,.5.5V92.88A.5.5,0,0,1,138.79,93.38Z"></path><path d="M171.77,93.56H143.5a.51.51,0,0,1-.5-.5V61.41a.51.51,0,0,1,.5-.5h28.27a.51.51,0,0,1,.5.5V93.06A.51.51,0,0,1,171.77,93.56Zm-27.77-1h27.27V61.91H144Z"></path></g><g style="opacity:0.2"><path d="M245.89,93.38H220.65a.5.5,0,0,1-.5-.5V61.34a.5.5,0,0,1,.5-.5h27v1H221.15V92.38h24.74Z"></path><path d="M215.94,93.56H187.67a.51.51,0,0,1-.5-.5V61.41a.51.51,0,0,1,.5-.5h28.27a.51.51,0,0,1,.5.5V93.06A.51.51,0,0,1,215.94,93.56Zm-27.77-1h27.27V61.91H188.17Z"></path></g><path d="M172.49,205.18H116.21v-1H172V110.61H113.74v-1h58.75a.5.5,0,0,1,.5.5v94.57A.5.5,0,0,1,172.49,205.18Z" style="opacity:0.2"></path><path d="M240.51,205.18H187.33a.5.5,0,0,1-.5-.5V109.31a.5.5,0,0,1,.5-.5h57.51v1h-57v94.37h52.68Z" style="opacity:0.2"></path><path d="M172.49,322.69h-50.3v-1H172V227.62H118.07v-1h54.42a.51.51,0,0,1,.5.5v95.07A.5.5,0,0,1,172.49,322.69Z" style="opacity:0.2"></path><path d="M236.38,323.57h-49a.5.5,0,0,1-.5-.5V226.32a.5.5,0,0,1,.5-.5h53.8v1h-53.3v95.75h48.55Z" style="opacity:0.2"></path><rect x="121.94" y="328.61" width="115.2" height="1" style="opacity:0.2"></rect><rect x="111.52" y="49.89" width="136.11" height="1" style="opacity:0.2"></rect><rect x="179.4" y="51.04" width="1" height="276.77" style="opacity:0.2"></rect><rect x="113.25" y="102.29" width="132.39" height="1" style="opacity:0.2"></rect></g><g id="freepik--Plant--inject-374"><path d="M417.6,380.94h0a.5.5,0,0,1-.5-.51c0-1.43,2.19-143.56,3-158.17.28-4.79,1.72-7.93,4.28-9.33,3.89-2.14,8.84.56,9.05.67a.5.5,0,0,1-.48.88c-.05,0-4.68-2.55-8.09-.68-2.24,1.24-3.51,4.1-3.77,8.52-.85,14.59-3,156.69-3,158.13A.49.49,0,0,1,417.6,380.94Z" style="fill:#263238"></path><path d="M419.78,379.64h0a.5.5,0,0,1-.47-.53c4.29-85.81-5.12-154.76-5.22-155.45a.5.5,0,0,1,.43-.56.5.5,0,0,1,.56.42c.1.69,9.52,69.73,5.22,155.64A.5.5,0,0,1,419.78,379.64Z" style="fill:#263238"></path><path d="M424,217s-4.48,2.88-7-.41,1.73-9.32-2-11.89-10.28,1.35-10.28,1.35,5,1.47,4.85,4.21-2.58,3.77-2.9,2.58-2.71-7.23-6.78-4.72a10.12,10.12,0,0,0-4.7,6.39s9.48-1,10.05,2.56-3.88-.62-7.79-.85-7.48.34-7.22,2.71a31,31,0,0,1-.37,6.25,11.65,11.65,0,0,1,7.61-2.69c4.3.26,4.14,3,.23,2.76s-7.27,3.5-7.27,3.5,3.57,6.09,8.1,9.11,6.16,1.93,6.69-.39-.69-8.28,2.05-8.12-4.54,10.33-1,10.92,6.3-.41,7.22-2.71l.92-2.3s-1.22-6-.69-8.28,1.18.07,1.8,2.85,1,9.48,2.2,9.16,5-5.2,5.92-7.11-5-7.75-5-8.92,4.64,1.06,5.36,2.28a30,30,0,0,1,1.4,2.82s2.85-1.79,2.78-7.29S424,217,424,217Z" style="fill:#92E3A9"></path><path d="M424,217s-4.48,2.88-7-.41,1.73-9.32-2-11.89-10.28,1.35-10.28,1.35,5,1.47,4.85,4.21-2.58,3.77-2.9,2.58-2.71-7.23-6.78-4.72a10.12,10.12,0,0,0-4.7,6.39s9.48-1,10.05,2.56-3.88-.62-7.79-.85-7.48.34-7.22,2.71a31,31,0,0,1-.37,6.25,11.65,11.65,0,0,1,7.61-2.69c4.3.26,4.14,3,.23,2.76s-7.27,3.5-7.27,3.5,3.57,6.09,8.1,9.11,6.16,1.93,6.69-.39-.69-8.28,2.05-8.12-4.54,10.33-1,10.92,6.3-.41,7.22-2.71l.92-2.3s-1.22-6-.69-8.28,1.18.07,1.8,2.85,1,9.48,2.2,9.16,5-5.2,5.92-7.11-5-7.75-5-8.92,4.64,1.06,5.36,2.28a30,30,0,0,1,1.4,2.82s2.85-1.79,2.78-7.29S424,217,424,217Z" style="fill:#263238;opacity:0.30000000000000004"></path><path d="M401.21,230.4a.51.51,0,0,1-.31-.11.5.5,0,0,1-.08-.7c3-3.69,7.31-8.59,11-11a.49.49,0,0,1,.69.15.5.5,0,0,1-.15.69c-3.54,2.29-7.79,7.1-10.73,10.74A.5.5,0,0,1,401.21,230.4Z" style="fill:#263238"></path><path d="M397.82,234.8a.52.52,0,0,1-.29-.09.49.49,0,0,1-.11-.7s.75-1,2-2.62a.5.5,0,1,1,.79.61c-1.2,1.55-1.95,2.59-1.95,2.59A.49.49,0,0,1,397.82,234.8Z" style="fill:#263238"></path><path d="M419.12,232.92a.5.5,0,0,1-.5-.44c-.78-6.12-5-12.18-5.06-12.24a.5.5,0,0,1,.82-.57c.18.25,4.42,6.31,5.23,12.69a.5.5,0,0,1-.43.56Z" style="fill:#263238"></path><path d="M409.8,231.19h0a.5.5,0,0,1-.47-.53c.31-5.09-.13-6.31-.28-6.57a.52.52,0,0,1-.41-.25.5.5,0,0,1,.18-.68.71.71,0,0,1,.72,0c.33.2,1.2.74.79,7.54A.49.49,0,0,1,409.8,231.19Zm-.5-7.17Z" style="fill:#263238"></path><path d="M412.22,216.82a.5.5,0,0,1-.33-.87c.09-.09,2.22-2.08,1-6.09a.5.5,0,0,1,.33-.62.51.51,0,0,1,.63.34c1.38,4.64-1.21,7-1.33,7.11A.46.46,0,0,1,412.22,216.82Z" style="fill:#263238"></path><path d="M408.86,220.55a.53.53,0,0,1-.44-.26L406.65,217a.51.51,0,0,1,.2-.68.5.5,0,0,1,.68.2l1.77,3.25a.49.49,0,0,1-.2.67A.42.42,0,0,1,408.86,220.55Z" style="fill:#263238"></path><path d="M405.14,223.86a.54.54,0,0,1-.3-.1c-.06,0-5.56-4.17-8.89-4.37a.5.5,0,0,1-.47-.53.52.52,0,0,1,.53-.47c3.63.22,9.19,4.39,9.43,4.57a.5.5,0,0,1-.3.9Z" style="fill:#263238"></path><path d="M439.94,205.42s-.18,6.45-5.22,6.77-8.14-8.08-13.29-6.06-5.65,11.22-5.65,11.22,4.89-4,7.52-2,2,5.15.6,4.66-9.08-2.21-9.35,3.57a12.23,12.23,0,0,0,3.21,9.06s5.44-10.18,9.4-8.32-3.27,3.47-6.16,7.22-4.75,7.72-2.21,9.08a37.32,37.32,0,0,1,6,4.64,14.09,14.09,0,0,1,2.5-9.46c3.18-4.13,5.81-2.11,2.92,1.65s-1.46,9.66-1.46,9.66,8.53.59,14.64-1.89,6.14-4.86,4.17-7-8.76-4.95-6.73-7.58,7.25,11.57,10.23,8.48,3.88-6.59,2.21-9.08l-1.68-2.49s-6.79-2.84-8.76-5,.87-1.13,4.08.14,10.18,5.45,10.67,4-1.79-8.57-3.09-10.77-11.19-.24-12.32-1.11,4.23-3.93,5.94-3.81,3.79.52,3.79.52.14-4.07-5.41-7.75S439.94,205.42,439.94,205.42Z" style="fill:#92E3A9"></path><path d="M439.94,205.42s-.18,6.45-5.22,6.77-8.14-8.08-13.29-6.06-5.65,11.22-5.65,11.22,4.89-4,7.52-2,2,5.15.6,4.66-9.08-2.21-9.35,3.57a12.23,12.23,0,0,0,3.21,9.06s5.44-10.18,9.4-8.32-3.27,3.47-6.16,7.22-4.75,7.72-2.21,9.08a37.32,37.32,0,0,1,6,4.64,14.09,14.09,0,0,1,2.5-9.46c3.18-4.13,5.81-2.11,2.92,1.65s-1.46,9.66-1.46,9.66,8.53.59,14.64-1.89,6.14-4.86,4.17-7-8.76-4.95-6.73-7.58,7.25,11.57,10.23,8.48,3.88-6.59,2.21-9.08l-1.68-2.49s-6.79-2.84-8.76-5,.87-1.13,4.08.14,10.18,5.45,10.67,4-1.79-8.57-3.09-10.77-11.19-.24-12.32-1.11,4.23-3.93,5.94-3.81,3.79.52,3.79.52.14-4.07-5.41-7.75S439.94,205.42,439.94,205.42Z" style="fill:#263238;opacity:0.2"></path><path d="M437.34,237.48a.51.51,0,0,1-.48-.36c-1.65-5.5-3.6-13.15-3.48-18.41a.51.51,0,0,1,.51-.49.5.5,0,0,1,.49.51c-.12,5.13,1.8,12.67,3.44,18.1a.49.49,0,0,1-.33.62A.4.4,0,0,1,437.34,237.48Z" style="fill:#263238"></path><path d="M439.44,243.87a.48.48,0,0,1-.47-.33s-.55-1.5-1.28-3.76a.5.5,0,0,1,.32-.63.49.49,0,0,1,.63.32c.73,2.25,1.26,3.72,1.27,3.73a.5.5,0,0,1-.3.64A.51.51,0,0,1,439.44,243.87Z" style="fill:#263238"></path><path d="M452.07,221.27a.49.49,0,0,1-.23-.06c-6.68-3.41-15.66-3.29-15.75-3.29a.51.51,0,0,1-.51-.49.5.5,0,0,1,.49-.51c.38,0,9.32-.12,16.23,3.4a.5.5,0,0,1-.23,1Z" style="fill:#263238"></path><path d="M444,229.41a.49.49,0,0,1-.3-.1c-5.12-3.94-6.59-4.22-6.9-4.22h0a.52.52,0,0,1-.46.24.5.5,0,0,1-.47-.54.77.77,0,0,1,.46-.61c.64-.28,2.16-.14,8,4.34a.5.5,0,0,1-.31.89Zm-7.13-4.55Z" style="fill:#263238"></path><path d="M431.25,217.2a.5.5,0,0,1-.49-.44c0-.15-.57-3.7-5.47-5.26a.5.5,0,1,1,.3-1c5.54,1.76,6.13,5.92,6.16,6.09a.5.5,0,0,1-.44.56Z" style="fill:#263238"></path><path d="M432.69,223.1h-.05l-4.45-.44a.5.5,0,0,1-.45-.55.51.51,0,0,1,.55-.45l4.45.44a.5.5,0,0,1-.05,1Z" style="fill:#263238"></path><path d="M422.76,235.21a.51.51,0,0,1-.31-.11.49.49,0,0,1-.09-.7c2.67-3.46,10.61-6.17,10.95-6.29a.5.5,0,0,1,.32.95c-.08,0-8,2.73-10.48,5.95A.47.47,0,0,1,422.76,235.21Z" style="fill:#263238"></path><path d="M411.09,378.77h0a.5.5,0,0,1-.49-.51c2.81-105.53-24.73-129.3-25-129.52a.51.51,0,0,1-.08-.71.52.52,0,0,1,.71-.07c.29.24,7.19,6,13.82,25,6.08,17.45,13,49.89,11.55,105.31A.51.51,0,0,1,411.09,378.77Z" style="fill:#263238"></path><path d="M417.49,243.87s-.81,7.43-6.65,7.32-8.64-10.09-14.77-8.25-7.58,12.41-7.58,12.41,6-4.17,8.86-1.58,1.85,6.13.26,5.43-10.27-3.41-11.12,3.24a14.18,14.18,0,0,0,2.84,10.76S396.57,262,401,264.48s-4.1,3.7-7.8,7.76-6.21,8.45-3.4,10.27a43.65,43.65,0,0,1,6.5,5.91s-.3-6.21,3.77-10.67,6.91-1.89,3.21,2.18-2.59,11-2.59,11,9.79,1.49,17.07-.8,7.54-5,5.47-7.65-9.64-6.54-7.05-9.38,7.27,14,11,10.75,5.1-7.24,3.4-10.27l-1.7-3s-7.57-3.92-9.64-6.54,1.11-1.22,4.69.56,11.23,7.24,11.93,5.65-1.25-10.05-2.54-12.71-12.89-1.33-14.11-2.44,5.25-4.14,7.2-3.84,4.33,1,4.33,1,.55-4.69-5.5-9.46S417.49,243.87,417.49,243.87Z" style="fill:#92E3A9"></path><path d="M417.49,243.87s-.81,7.43-6.65,7.32-8.64-10.09-14.77-8.25-7.58,12.41-7.58,12.41,6-4.17,8.86-1.58,1.85,6.13.26,5.43-10.27-3.41-11.12,3.24a14.18,14.18,0,0,0,2.84,10.76S396.57,262,401,264.48s-4.1,3.7-7.8,7.76-6.21,8.45-3.4,10.27a43.65,43.65,0,0,1,6.5,5.91s-.3-6.21,3.77-10.67,6.91-1.89,3.21,2.18-2.59,11-2.59,11,9.79,1.49,17.07-.8,7.54-5,5.47-7.65-9.64-6.54-7.05-9.38,7.27,14,11,10.75,5.1-7.24,3.4-10.27l-1.7-3s-7.57-3.92-9.64-6.54,1.11-1.22,4.69.56,11.23,7.24,11.93,5.65-1.25-10.05-2.54-12.71-12.89-1.33-14.11-2.44,5.25-4.14,7.2-3.84,4.33,1,4.33,1,.55-4.69-5.5-9.46S417.49,243.87,417.49,243.87Z" style="fill:#263238;opacity:0.30000000000000004"></path><path d="M411.52,280.54a.5.5,0,0,1-.49-.4c-1.39-6.49-2.92-15.5-2.28-21.54a.5.5,0,0,1,.55-.45.51.51,0,0,1,.45.55c-.63,5.91.88,14.81,2.26,21.23a.5.5,0,0,1-.38.6Z" style="fill:#263238"></path><path d="M413.34,288.12a.52.52,0,0,1-.49-.37s-.48-1.78-1.11-4.47a.5.5,0,1,1,1-.23c.63,2.67,1.1,4.42,1.11,4.43a.52.52,0,0,1-.35.62Z" style="fill:#263238"></path><path d="M430.05,263.22a.54.54,0,0,1-.27-.07c-7.41-4.58-17.8-5.29-17.9-5.29a.5.5,0,0,1-.47-.53.49.49,0,0,1,.53-.47c.44,0,10.74.73,18.37,5.44a.49.49,0,0,1,.16.68A.48.48,0,0,1,430.05,263.22Z" style="fill:#263238"></path><path d="M420,271.86a.5.5,0,0,1-.34-.13c-5.73-5.21-7.34-5.54-7.66-5.54h0a.49.49,0,0,1-.5.23.5.5,0,0,1-.42-.57.81.81,0,0,1,.53-.6c.43-.15,1.74-.61,8.72,5.74a.5.5,0,0,1-.33.87ZM412,266Z" style="fill:#263238"></path><path d="M406.4,256.56a.49.49,0,0,1-.49-.47c0-.18-.31-4.38-5.86-6.66a.49.49,0,0,1-.27-.65.5.5,0,0,1,.65-.28c6.17,2.54,6.46,7.33,6.47,7.54a.49.49,0,0,1-.47.52Z" style="fill:#263238"></path><path d="M407.51,263.51h-.09l-5.1-.93a.5.5,0,0,1-.4-.58.51.51,0,0,1,.58-.4l5.1.93a.5.5,0,0,1-.09,1Z" style="fill:#263238"></path><path d="M394.91,276.54a.5.5,0,0,1-.34-.13.49.49,0,0,1,0-.7c3.39-3.73,12.78-6.11,13.18-6.21a.5.5,0,0,1,.24,1c-.09,0-9.5,2.4-12.68,5.9A.5.5,0,0,1,394.91,276.54Z" style="fill:#263238"></path><path d="M417.49,316.22s-.81,7.42-6.65,7.31-8.64-10.09-14.77-8.25-7.58,12.41-7.58,12.41,6-4.17,8.86-1.58,1.85,6.13.26,5.43-10.27-3.4-11.12,3.25a14.15,14.15,0,0,0,2.84,10.75s7.24-11.23,11.64-8.72-4.1,3.7-7.8,7.76-6.21,8.46-3.4,10.27a43.65,43.65,0,0,1,6.5,5.91s-.3-6.2,3.77-10.67,6.91-1.88,3.21,2.18-2.59,11-2.59,11,9.79,1.48,17.07-.81,7.54-5,5.47-7.64-9.64-6.55-7.05-9.39,7.27,14,11,10.76,5.1-7.24,3.4-10.27l-1.7-3s-7.57-3.92-9.64-6.55,1.11-1.22,4.69.56,11.23,7.25,11.93,5.66-1.25-10.05-2.54-12.71-12.89-1.34-14.11-2.45,5.25-4.13,7.2-3.84a43,43,0,0,1,4.33,1s.55-4.7-5.5-9.46S417.49,316.22,417.49,316.22Z" style="fill:#92E3A9"></path><path d="M417.49,316.22s-.81,7.42-6.65,7.31-8.64-10.09-14.77-8.25-7.58,12.41-7.58,12.41,6-4.17,8.86-1.58,1.85,6.13.26,5.43-10.27-3.4-11.12,3.25a14.15,14.15,0,0,0,2.84,10.75s7.24-11.23,11.64-8.72-4.1,3.7-7.8,7.76-6.21,8.46-3.4,10.27a43.65,43.65,0,0,1,6.5,5.91s-.3-6.2,3.77-10.67,6.91-1.88,3.21,2.18-2.59,11-2.59,11,9.79,1.48,17.07-.81,7.54-5,5.47-7.64-9.64-6.55-7.05-9.39,7.27,14,11,10.76,5.1-7.24,3.4-10.27l-1.7-3s-7.57-3.92-9.64-6.55,1.11-1.22,4.69.56,11.23,7.25,11.93,5.66-1.25-10.05-2.54-12.71-12.89-1.34-14.11-2.45,5.25-4.13,7.2-3.84a43,43,0,0,1,4.33,1s.55-4.7-5.5-9.46S417.49,316.22,417.49,316.22Z" style="fill:#263238;opacity:0.30000000000000004"></path><path d="M411.52,352.88a.5.5,0,0,1-.49-.4c-1.39-6.49-2.92-15.5-2.28-21.54a.5.5,0,0,1,.55-.45.51.51,0,0,1,.45.55c-.63,5.91.88,14.81,2.26,21.24a.5.5,0,0,1-.38.59Z" style="fill:#263238"></path><path d="M413.34,360.46a.52.52,0,0,1-.49-.37s-.48-1.78-1.11-4.46a.5.5,0,1,1,1-.23c.63,2.66,1.1,4.41,1.11,4.43a.5.5,0,0,1-.35.61Z" style="fill:#263238"></path><path d="M430.05,335.56a.54.54,0,0,1-.27-.07c-7.41-4.58-17.8-5.28-17.9-5.29a.5.5,0,0,1-.47-.53.47.47,0,0,1,.53-.47c.44,0,10.74.73,18.37,5.44a.5.5,0,0,1,.16.69A.49.49,0,0,1,430.05,335.56Z" style="fill:#263238"></path><path d="M420,344.21a.55.55,0,0,1-.34-.13c-5.73-5.22-7.34-5.55-7.66-5.55h0a.48.48,0,0,1-.5.23.5.5,0,0,1-.42-.56.79.79,0,0,1,.53-.6c.43-.16,1.74-.62,8.72,5.73a.51.51,0,0,1,0,.71A.51.51,0,0,1,420,344.21ZM412,338.35Z" style="fill:#263238"></path><path d="M406.4,328.9a.49.49,0,0,1-.49-.47c0-.18-.31-4.38-5.86-6.66a.49.49,0,0,1-.27-.65.5.5,0,0,1,.65-.28c6.17,2.54,6.46,7.34,6.47,7.54a.48.48,0,0,1-.47.52Z" style="fill:#263238"></path><path d="M407.51,335.85h-.09l-5.1-.92a.5.5,0,0,1-.4-.59.51.51,0,0,1,.58-.4l5.1.93a.5.5,0,0,1-.09,1Z" style="fill:#263238"></path><path d="M394.91,348.89a.55.55,0,0,1-.34-.13.5.5,0,0,1,0-.71c3.39-3.73,12.78-6.1,13.18-6.2a.48.48,0,0,1,.6.36.5.5,0,0,1-.36.61c-.09,0-9.5,2.4-12.68,5.9A.51.51,0,0,1,394.91,348.89Z" style="fill:#263238"></path><path d="M413.63,378.75c-1.71-18.42-18.06-78-18.22-78.59a.5.5,0,0,1,1-.26c.15.52,12.69,46.25,17,70.07l-3.19-101.19a.5.5,0,0,1,.48-.52.52.52,0,0,1,.52.49l3.47,109.94Z" style="fill:#263238"></path><path d="M414.13,379.2a.5.5,0,0,1-.5-.5c0-3,.18-73.44,15.62-86.36a7.89,7.89,0,0,1,6.68-1.92.5.5,0,0,1,.41.58.51.51,0,0,1-.58.4,6.86,6.86,0,0,0-5.87,1.71C414.8,305.73,414.63,378,414.63,378.7A.5.5,0,0,1,414.13,379.2Z" style="fill:#263238"></path><path d="M416.73,378.77a.5.5,0,0,1-.49-.46c-.41-4.45-9.61-109.27,13.24-134.28,3.21-3.52,7-5.3,11.14-5.3a.5.5,0,0,1,0,1c-3.89,0-7.39,1.67-10.4,5-22.56,24.68-13.09,132.43-13,133.51a.5.5,0,0,1-.45.55Z" style="fill:#263238"></path><path d="M427.57,288.28c-3-3.34-9.27-3.34-13,5.19s-.37,7-.37,7,7-2.22,11.5-3.71,10.38-5.19,10.75-3-3,4.45-7.05,5.19-14.83,3.71-13.71,5.93,3.7,8.9,3.7,8.9a94.65,94.65,0,0,1,10-7.42c4.82-3,7.79-1.85,5.19,1.49s-10,7-8.52,11.49,10.38,10,10.38,10,1.11-9.27,3.71-12.23,2.59.37,1.85,5.56a60.5,60.5,0,0,0-.74,6.67l10.38,3.71a75.09,75.09,0,0,1,5.56-7.42l1.86-1.85s-8.16-7.05-8.53-11.49,5.56,0,7.41.74,4.82,5.93,4.82,5.93,1.86-8.53,2.23-11.49l.37-3s-7.79-3-10.75-3-4.45,2.23-4.45-.74,3-4.82,6.3-4.45a57.47,57.47,0,0,1,8.9,2.23s2.22-1.86,1.48-7.42-2.59-5.56-7-4.08S452.41,292,449.07,292s-1.48-4.08.75-5.19,7.78-3.33,8.89-3.71-5.93-5.56-9.64-6.3-8.5,1.87-8.15,5.56C441.66,290.13,430.54,291.61,427.57,288.28Z" style="fill:#92E3A9"></path><path d="M451.67,330.3a.5.5,0,0,1-.5-.48c0-1.07-.12-2.19-.23-3.32a.5.5,0,0,1,.45-.55.53.53,0,0,1,.55.45c.11,1.15.19,2.29.23,3.38a.5.5,0,0,1-.48.52Z" style="fill:#263238"></path><path d="M451,323.31a.51.51,0,0,1-.5-.42A98.39,98.39,0,0,0,443.53,300a.5.5,0,0,1,.92-.39,99.47,99.47,0,0,1,7,23.09.49.49,0,0,1-.41.57Z" style="fill:#263238"></path><path d="M442.65,297.36a.51.51,0,0,1-.45-.29c-1.8-3.88-3.19-6.3-3.2-6.32l-.27-.48.5-.23a10.55,10.55,0,0,0,4.58-4.21,12.74,12.74,0,0,1,3.87-4.64.5.5,0,1,1,.56.83,11.88,11.88,0,0,0-3.54,4.25,11,11,0,0,1-4.57,4.44c.48.89,1.61,3,3,5.94a.5.5,0,0,1-.24.66A.54.54,0,0,1,442.65,297.36Z" style="fill:#263238"></path><path d="M426.46,303.61a.5.5,0,0,1-.19-1c8.37-3.49,13-5,13.76-4.5a.62.62,0,0,1,.28.52.51.51,0,0,1-.5.5.51.51,0,0,1-.36-.15c-1.18,0-7.32,2.27-12.8,4.56A.65.65,0,0,1,426.46,303.61Zm12.85-4.95Z" style="fill:#263238"></path><path d="M447.22,296.56a.5.5,0,0,1-.22-.95c.24-.12,6.1-3,11.34-3a.5.5,0,0,1,.5.5.5.5,0,0,1-.5.5c-5,0-10.84,2.88-10.9,2.91A.54.54,0,0,1,447.22,296.56Z" style="fill:#263238"></path><path d="M432.76,321a.51.51,0,0,1-.17,0,.5.5,0,0,1-.3-.64,32.26,32.26,0,0,1,5.28-8.68,50.37,50.37,0,0,1,7.12-7.11.49.49,0,0,1,.7.08.5.5,0,0,1-.09.7,51.58,51.58,0,0,0-7,7,31.81,31.81,0,0,0-5.11,8.37A.49.49,0,0,1,432.76,321Z" style="fill:#263238"></path><path d="M460.94,308.43a.55.55,0,0,1-.34-.13c-3.83-3.49-11.31-1.4-11.39-1.38a.49.49,0,0,1-.62-.34.51.51,0,0,1,.35-.62c.33-.09,8.1-2.25,12.34,1.6a.5.5,0,0,1-.34.87Z" style="fill:#263238"></path><path d="M463.18,256.34c-4-2.38-8.5-2.43-10.69-4.95s2.11-3.8,4.41-2.85,7.62,3.69,8.63,4.29.31-8.12-1.56-11.41-7-5.2-9.55-2.51c-5.39,5.66-13.8-1.77-13.23-6.19s-3.55-9.19-12.42-6.4-5.57,4.34-5.57,4.34,6.3,3.86,10.34,6.25,10.72,4.43,9.29,6.17-5.31.68-8.54-1.92-12.52-8.76-13.48-6.47-4.28,8.64-4.28,8.64a93.67,93.67,0,0,1,12.16,2.7c5.4,1.69,6.5,4.66,2.28,4.89S419.09,248,416.7,252s-.75,14.41-.75,14.41,7.73-5.24,11.67-5.23,1.42,2.21-3,5.05a60.88,60.88,0,0,0-5.52,3.81l4,10.28a74.38,74.38,0,0,1,9.25-.67l2.61.19s0-10.78,3.09-14,3.65,4.2,4.3,6.09-1.32,7.53-1.32,7.53,7.66-4.19,10.14-5.86l2.49-1.66s-2.87-7.83-4.81-10.07-4.6-1.9-2.36-3.84,5.58-.92,7.49,1.84a57.23,57.23,0,0,1,4.15,8.18s2.86.46,6.58-3.74S467.22,258.73,463.18,256.34Zm-35.09,11.87c-3-1.48,4.08-4.45,4.08-4.45C434.76,263.39,431.06,269.7,428.09,268.21Zm5-13.84c-1.26-.63,2.53-1.9,2.53-1.9C441.09,253.53,434.35,255,433.08,254.37Z" style="fill:#92E3A9"></path><path d="M425.63,278.64a.52.52,0,0,1-.36-.16.5.5,0,0,1,0-.71c.79-.74,1.58-1.53,2.36-2.35a.49.49,0,0,1,.7,0,.5.5,0,0,1,0,.71c-.78.83-1.59,1.64-2.39,2.39A.52.52,0,0,1,425.63,278.64Z" style="fill:#263238"></path><path d="M430.45,273.52a.48.48,0,0,1-.32-.11.51.51,0,0,1-.06-.71,99.2,99.2,0,0,0,12.71-20.22.5.5,0,0,1,.66-.24.5.5,0,0,1,.24.67,99.64,99.64,0,0,1-12.84,20.44A.52.52,0,0,1,430.45,273.52Z" style="fill:#263238"></path><path d="M444.6,250.23a.45.45,0,0,1-.2,0,.5.5,0,0,1-.26-.66c1.75-3.91,2.67-6.53,2.68-6.56l.18-.52.5.23a10.58,10.58,0,0,0,6.19.69,12.67,12.67,0,0,1,6-.11.5.5,0,1,1-.26,1,11.94,11.94,0,0,0-5.54.12,11,11,0,0,1-6.35-.55c-.35,1-1.2,3.19-2.52,6.15A.52.52,0,0,1,444.6,250.23Z" style="fill:#263238"></path><path d="M441.37,249.26a.5.5,0,0,1-.37-.17.48.48,0,0,1-.12-.37c-.78-.89-6.52-4-11.84-6.67a.49.49,0,0,1-.22-.67.5.5,0,0,1,.67-.23c8.12,4,12.3,6.54,12.42,7.44a.63.63,0,0,1-.21.55A.5.5,0,0,1,441.37,249.26Zm-.43-.46h0Zm.11-.42Z" style="fill:#263238"></path><path d="M457.73,259.61a.48.48,0,0,1-.38-.17c-3.29-3.78-9.29-6.29-9.35-6.32a.51.51,0,0,1-.27-.65.5.5,0,0,1,.66-.27c.25.1,6.27,2.62,9.71,6.59a.48.48,0,0,1-.05.7A.49.49,0,0,1,457.73,259.61Z" style="fill:#263238"></path><path d="M420.24,258.28a.51.51,0,0,1-.47-.32.49.49,0,0,1,.29-.64,32,32,0,0,1,10-1.71,51.34,51.34,0,0,1,10,.71.51.51,0,0,1,.4.59.5.5,0,0,1-.59.39,52.55,52.55,0,0,0-9.83-.69,31.36,31.36,0,0,0-9.67,1.64Z" style="fill:#263238"></path><path d="M448.23,271.3h0a.5.5,0,0,1-.49-.52c.12-5.17-6.37-9.45-6.43-9.5a.5.5,0,1,1,.54-.83c.29.18,7,4.63,6.89,10.36A.51.51,0,0,1,448.23,271.3Z" style="fill:#263238"></path><path d="M405.57,307.72c-3.25-1.92-6.85-2-8.61-4s1.7-3.05,3.55-2.29,6.13,3,6.95,3.45.25-6.54-1.26-9.18-5.62-4.19-7.68-2c-4.34,4.55-11.11-1.42-10.65-5s-2.86-7.39-10-5.14-4.48,3.49-4.48,3.49,5.07,3.1,8.32,5,8.63,3.57,7.48,5-4.27.54-6.87-1.55-10.08-7.05-10.85-5.2-3.45,6.94-3.45,6.94a75.8,75.8,0,0,1,9.79,2.18c4.34,1.36,5.23,3.75,1.84,3.93s-9.57-2.37-11.49.88-.6,11.59-.6,11.59,6.22-4.21,9.39-4.2,1.14,1.77-2.4,4.06a48.92,48.92,0,0,0-4.45,3.07l3.22,8.27a59.39,59.39,0,0,1,7.44-.53l2.11.14s0-8.67,2.48-11.24,2.94,3.38,3.47,4.89-1.07,6.06-1.07,6.06,6.16-3.37,8.16-4.71l2-1.34s-2.31-6.29-3.87-8.1-3.7-1.53-1.9-3.09,4.5-.74,6,1.48a46.25,46.25,0,0,1,3.34,6.58s2.3.38,5.29-3S408.81,309.64,405.57,307.72Zm-28.24,9.55c-2.39-1.19,3.28-3.58,3.28-3.58C382.7,313.39,379.72,318.46,377.33,317.27Zm4-11.14c-1-.51,2-1.53,2-1.53C387.79,305.45,382.37,306.64,381.35,306.13Z" style="fill:#92E3A9"></path><path d="M375.35,325.76a.5.5,0,0,1-.34-.87c.62-.58,1.26-1.22,1.89-1.89a.5.5,0,0,1,.73.69c-.65.68-1.3,1.33-1.94,1.93A.49.49,0,0,1,375.35,325.76Z" style="fill:#263238"></path><path d="M379.23,321.64a.5.5,0,0,1-.38-.82,79.35,79.35,0,0,0,10.21-16.26.5.5,0,0,1,.67-.23.51.51,0,0,1,.23.67,79.64,79.64,0,0,1-10.35,16.46A.49.49,0,0,1,379.23,321.64Z" style="fill:#263238"></path><path d="M390.61,302.9a.53.53,0,0,1-.2,0,.5.5,0,0,1-.25-.66c1.4-3.14,2.14-5.25,2.15-5.27l.18-.52.5.23a8.31,8.31,0,0,0,4.91.55,10.59,10.59,0,0,1,4.92-.09.52.52,0,0,1,.35.62.51.51,0,0,1-.62.35,9.4,9.4,0,0,0-4.4.09,9,9,0,0,1-5.08-.4c-.3.81-1,2.56-2,4.85A.5.5,0,0,1,390.61,302.9Z" style="fill:#263238"></path><path d="M388,302.12a.51.51,0,0,1-.5-.5c-.71-.74-5.27-3.23-9.47-5.32a.5.5,0,0,1-.23-.67.51.51,0,0,1,.68-.23c9.9,4.92,10,5.79,10,6.07a.65.65,0,0,1-.2.52A.45.45,0,0,1,388,302.12Zm-.43-.42h0Z" style="fill:#263238"></path><path d="M401.18,310.45a.52.52,0,0,1-.38-.17c-2.63-3-7.44-5-7.48-5.07a.49.49,0,0,1-.27-.65.49.49,0,0,1,.65-.27c.2.09,5.07,2.12,7.86,5.33a.52.52,0,0,1-.05.71A.54.54,0,0,1,401.18,310.45Z" style="fill:#263238"></path><path d="M371,309.38a.52.52,0,0,1-.47-.33.5.5,0,0,1,.29-.64,26.1,26.1,0,0,1,8.09-1.38,42.26,42.26,0,0,1,8.1.58.5.5,0,0,1,.4.58.51.51,0,0,1-.59.4,40.64,40.64,0,0,0-7.89-.56,25.5,25.5,0,0,0-7.75,1.31A.39.39,0,0,1,371,309.38Z" style="fill:#263238"></path><path d="M393.53,319.85h0a.52.52,0,0,1-.49-.51c.1-4.1-5.07-7.53-5.13-7.56a.51.51,0,0,1-.14-.7.5.5,0,0,1,.69-.14c.23.15,5.69,3.76,5.58,8.42A.49.49,0,0,1,393.53,319.85Z" style="fill:#263238"></path><path d="M437,347.74c-3.25-1.92-6.84-2-8.6-4s1.7-3.05,3.55-2.28,6.13,3,6.94,3.45.25-6.54-1.25-9.19-5.63-4.18-7.68-2c-4.34,4.56-11.11-1.42-10.65-5s-2.86-7.39-10-5.15-4.48,3.49-4.48,3.49,5.07,3.11,8.32,5,8.63,3.57,7.47,5-4.26.55-6.87-1.54-10.07-7.06-10.84-5.21-3.45,6.95-3.45,6.95a76.82,76.82,0,0,1,9.79,2.17c4.34,1.36,5.23,3.75,1.83,3.94s-9.56-2.37-11.48.88-.61,11.59-.61,11.59,6.22-4.22,9.4-4.2,1.14,1.77-2.41,4.06a49.26,49.26,0,0,0-4.44,3.07l3.22,8.26a59.39,59.39,0,0,1,7.44-.53l2.11.15s0-8.67,2.48-11.25,2.94,3.38,3.46,4.9-1.06,6.06-1.06,6.06,6.16-3.37,8.16-4.71l2-1.34s-2.31-6.3-3.87-8.1-3.7-1.53-1.9-3.1,4.49-.74,6,1.49a46.85,46.85,0,0,1,3.34,6.58s2.3.37,5.29-3S440.24,349.67,437,347.74Zm-28.23,9.56c-2.39-1.2,3.28-3.58,3.28-3.58C414.13,353.42,411.14,358.49,408.76,357.3Zm4-11.14c-1-.51,2-1.53,2-1.53C419.22,345.48,413.79,346.66,412.78,346.16Z" style="fill:#92E3A9"></path><path d="M406.78,365.78a.5.5,0,0,1-.37-.16.49.49,0,0,1,0-.7c.63-.59,1.26-1.23,1.89-1.89a.5.5,0,0,1,.73.69c-.64.67-1.29,1.32-1.94,1.93A.5.5,0,0,1,406.78,365.78Z" style="fill:#263238"></path><path d="M410.66,361.67a.47.47,0,0,1-.32-.12.51.51,0,0,1-.07-.71,79.14,79.14,0,0,0,10.22-16.25.5.5,0,1,1,.9.43A80.28,80.28,0,0,1,411,361.49.49.49,0,0,1,410.66,361.67Z" style="fill:#263238"></path><path d="M422,342.92a.45.45,0,0,1-.2,0,.49.49,0,0,1-.25-.66c1.4-3.14,2.14-5.25,2.14-5.27l.19-.52.5.23a8.38,8.38,0,0,0,4.91.55,10.29,10.29,0,0,1,4.92-.09.5.5,0,0,1,.35.61.5.5,0,0,1-.62.35,9.65,9.65,0,0,0-4.4.1,9,9,0,0,1-5.08-.41c-.3.81-1,2.57-2,4.86A.52.52,0,0,1,422,342.92Z" style="fill:#263238"></path><path d="M419.45,342.14a.52.52,0,0,1-.38-.17.49.49,0,0,1-.12-.32c-.71-.74-5.27-3.24-9.47-5.32a.5.5,0,1,1,.44-.9c9.91,4.92,10,5.78,10.05,6.07a.68.68,0,0,1-.2.52A.49.49,0,0,1,419.45,342.14Zm-.44-.41h0Zm.11-.47Z" style="fill:#263238"></path><path d="M432.61,350.47a.48.48,0,0,1-.38-.17c-2.63-3-7.44-5-7.49-5.06a.51.51,0,0,1-.27-.65.5.5,0,0,1,.66-.27c.2.08,5.07,2.12,7.85,5.33a.49.49,0,0,1-.37.82Z" style="fill:#263238"></path><path d="M402.44,349.4a.5.5,0,0,1-.47-.32.5.5,0,0,1,.29-.65,25.93,25.93,0,0,1,8.09-1.37,41.83,41.83,0,0,1,8.1.57.49.49,0,0,1,.39.59.48.48,0,0,1-.58.39,42.42,42.42,0,0,0-7.89-.55,25.7,25.7,0,0,0-7.76,1.31A.47.47,0,0,1,402.44,349.4Z" style="fill:#263238"></path><path d="M425,359.88h0a.51.51,0,0,1-.49-.52c.1-4.1-5.08-7.53-5.13-7.56a.5.5,0,0,1-.15-.69.51.51,0,0,1,.7-.15c.23.15,5.69,3.77,5.58,8.43A.5.5,0,0,1,425,359.88Z" style="fill:#263238"></path><path d="M392.32,246.49s-4.08,3-6.67,0,1.11-8.89-2.6-11.12-9.64,1.86-9.64,1.86,4.82,1.11,4.82,3.7-2.22,3.71-2.6,2.6-3-6.68-6.67-4.08a9.55,9.55,0,0,0-4.08,6.3s8.9-1.48,9.64,1.86-3.71-.37-7.41-.37-7.05.74-6.68,3a29.24,29.24,0,0,1,0,5.93,11,11,0,0,1,7.05-3c4.08,0,4.08,2.59.37,2.59s-6.68,3.71-6.68,3.71,3.71,5.56,8.16,8.16,5.93,1.48,6.3-.74-1.11-7.79,1.49-7.79-3.71,10-.37,10.38,5.93-.74,6.67-3l.74-2.23s-1.48-5.56-1.11-7.79,1.11,0,1.85,2.6,1.49,8.9,2.6,8.53,4.45-5.19,5.19-7.05-5.19-7-5.19-8.15,4.45.74,5.19,1.85a28.23,28.23,0,0,1,1.48,2.6s2.6-1.86,2.23-7S392.32,246.49,392.32,246.49Z" style="fill:#92E3A9"></path><path d="M371.55,260.44a.52.52,0,0,1-.29-.09.5.5,0,0,1-.12-.7c2.62-3.65,6.44-8.53,9.76-11a.5.5,0,0,1,.7.1.51.51,0,0,1-.11.7c-3.22,2.36-7,7.15-9.53,10.74A.51.51,0,0,1,371.55,260.44Z" style="fill:#263238"></path><path d="M368.59,264.79a.47.47,0,0,1-.27-.08.5.5,0,0,1-.15-.69s.65-1,1.72-2.59a.52.52,0,0,1,.7-.13.51.51,0,0,1,.13.7c-1.06,1.53-1.71,2.55-1.71,2.56A.48.48,0,0,1,368.59,264.79Z" style="fill:#263238"></path><path d="M388.61,261.83a.51.51,0,0,1-.49-.41c-1.08-5.75-5.42-11.22-5.46-11.28a.5.5,0,1,1,.78-.62c.19.23,4.54,5.73,5.66,11.71a.51.51,0,0,1-.4.59Z" style="fill:#263238"></path><path d="M379.71,260.71a.5.5,0,0,1-.5-.5c0-4.76-.46-5.91-.62-6.17a.53.53,0,0,1-.41-.22.51.51,0,0,1,.14-.7.7.7,0,0,1,.71,0c.55.29,1.18,1.37,1.18,7.1A.5.5,0,0,1,379.71,260.71Zm-.83-6.75Z" style="fill:#263238"></path><path d="M381.2,247a.5.5,0,0,1-.36-.14.51.51,0,0,1,0-.71c.09-.09,2-2.08.63-5.78a.5.5,0,0,1,.3-.64.5.5,0,0,1,.64.3c1.57,4.33-.76,6.73-.86,6.83A.49.49,0,0,1,381.2,247Z" style="fill:#263238"></path><path d="M378.23,250.7a.48.48,0,0,1-.42-.23l-1.86-3a.5.5,0,0,1,.85-.53l1.85,3a.5.5,0,0,1-.15.69A.54.54,0,0,1,378.23,250.7Z" style="fill:#263238"></path><path d="M374.89,254a.53.53,0,0,1-.27-.08c-.06,0-5.48-3.63-8.62-3.63a.5.5,0,0,1,0-1c3.44,0,8.94,3.64,9.17,3.79a.51.51,0,0,1,.14.7A.52.52,0,0,1,374.89,254Z" style="fill:#263238"></path><polygon points="429.76 458.21 401.1 458.21 404.68 377.32 426.18 377.32 429.76 458.21" style="fill:#263238"></polygon><path d="M430.81,459.21H400.06l3.67-82.89h23.41Zm-28.66-2h26.57l-3.5-78.89H405.64Z" style="fill:#263238"></path></g><g id="freepik--Character--inject-374"><polygon points="102.33 357.55 103.12 458.25 111.49 458.25 112.28 357.55 102.33 357.55" style="fill:#bababa"></polygon><path d="M111.49,458.75h-8.37a.5.5,0,0,1-.5-.5l-.78-100.69a.47.47,0,0,1,.14-.36.48.48,0,0,1,.36-.15h9.94a.47.47,0,0,1,.35.15.51.51,0,0,1,.15.36L112,458.25A.5.5,0,0,1,111.49,458.75Zm-7.88-1H111l.77-99.7h-8.93Z" style="fill:#263238"></path><polygon points="188.14 357.55 188.92 458.25 197.3 458.25 198.08 357.55 188.14 357.55" style="fill:#bababa"></polygon><path d="M197.3,458.75h-8.38a.5.5,0,0,1-.5-.5l-.78-100.69a.5.5,0,0,1,.5-.51h9.94a.47.47,0,0,1,.35.15.48.48,0,0,1,.15.36l-.78,100.69A.5.5,0,0,1,197.3,458.75Zm-7.88-1h7.38l.78-99.7h-8.94Z" style="fill:#263238"></path><path d="M103,337.56h95.63a5.51,5.51,0,0,1,5.51,5.51v8.77a0,0,0,0,1,0,0H97.46a0,0,0,0,1,0,0v-8.77A5.51,5.51,0,0,1,103,337.56Z" style="fill:#fff"></path><path d="M204.1,352.34H97.46a.5.5,0,0,1-.5-.5v-8.77a6,6,0,0,1,6-6h95.62a6,6,0,0,1,6,6v8.77A.5.5,0,0,1,204.1,352.34ZM98,351.34H203.6v-8.27a5,5,0,0,0-5-5H103a5,5,0,0,0-5,5Z" style="fill:#263238"></path><rect x="97.46" y="351.84" width="106.64" height="14.28" style="fill:#bababa"></rect><path d="M204.1,366.62H97.46a.5.5,0,0,1-.5-.5V351.84a.5.5,0,0,1,.5-.5H204.1a.5.5,0,0,1,.5.5v14.28A.5.5,0,0,1,204.1,366.62ZM98,365.62H203.6V352.34H98Z" style="fill:#263238"></path><path d="M179.69,197.33s.25.29.72,1c1.41,2,4.79,7.46,9.15,18.65,5.79,14.88,8,26,17.7,34s19.26,15.19,19.26,15.19l-13.94,11.12H183s-13.78-39.78-18.63-56.85-2.82-21.14,1.09-24.43S175,192.6,179.69,197.33Z" style="fill:#92E3A9"></path><path d="M212.58,277.73H183a.5.5,0,0,1-.47-.33c-.14-.4-13.84-40-18.65-56.88-4.63-16.31-3.21-21.2,1.26-25s10.34-3.21,14.93,1.41l0,0s.26.31.75,1c1.6,2.29,4.93,7.77,9.21,18.76,1.2,3.08,2.23,6,3.24,8.77,3.75,10.48,6.71,18.76,14.3,25,9.59,7.88,19.16,15.1,19.25,15.17a.52.52,0,0,1,.2.4.49.49,0,0,1-.19.39l-13.94,11.12A.51.51,0,0,1,212.58,277.73Zm-29.24-1h29.07l13.3-10.61c-2.12-1.6-10.43-7.95-18.77-14.81-7.81-6.42-10.81-14.81-14.62-25.44-1-2.79-2-5.68-3.23-8.75-4.4-11.3-7.82-16.73-9.09-18.55a9.38,9.38,0,0,0-.68-.9c-4.19-4.21-9.51-4.73-13.56-1.34-3.53,3-5.85,6.63-.93,23.92C169.39,236.28,182,272.83,183.34,276.73Z" style="fill:#263238"></path><path d="M247.22,244.74l9.31-4.45L253.2,252.1S246.94,248.21,247.22,244.74Z" style="fill:#fff"></path><path d="M253.2,252.6a.5.5,0,0,1-.27-.07c-.26-.17-6.51-4.1-6.21-7.83a.48.48,0,0,1,.28-.41l9.32-4.45a.5.5,0,0,1,.69.58l-3.33,11.82a.55.55,0,0,1-.3.33A.57.57,0,0,1,253.2,252.6Zm-5.49-7.54c.09,2.29,3.36,5,5.19,6.25l2.85-10.09Z" style="fill:#263238"></path><path d="M254.17,260.58l-25.85,18.07H206.78l32.52-20.29s1-10.71,5.42-11.12S254.31,256.83,254.17,260.58Z" style="fill:#263238"></path><path d="M228.32,279.14H206.78a.49.49,0,0,1-.48-.36.51.51,0,0,1,.21-.56l32.32-20.16c.18-1.69,1.38-10.9,5.84-11.32a5.52,5.52,0,0,1,4.17,1.88c3.26,3.09,5.93,9.16,5.83,12a.52.52,0,0,1-.22.39l-25.84,18.06A.52.52,0,0,1,228.32,279.14Zm-19.79-1h19.63l25.51-17.82c-.06-2.67-2.58-8.19-5.51-11a4.66,4.66,0,0,0-3.4-1.61c-3.3.31-4.7,7.8-5,10.66a.49.49,0,0,1-.24.38Zm45.64-17.56h0Z" style="fill:#263238"></path><path d="M241.24,244.88l-32,20.42s-7.36,5.84-2.5,13.35l32.52-20.29A38.16,38.16,0,0,1,241.24,244.88Z" style="fill:#fff"></path><path d="M206.78,279.14a.52.52,0,0,1-.42-.22c-5.05-7.8,2.53-13.95,2.61-14l32-20.46a.53.53,0,0,1,.59,0,.51.51,0,0,1,.15.57,37.68,37.68,0,0,0-1.91,13.28.5.5,0,0,1-.24.45L207,279.07A.48.48,0,0,1,206.78,279.14Zm33.54-33.08-30.77,19.66c-.24.2-6.64,5.41-2.61,12.24l31.85-19.87A38.91,38.91,0,0,1,240.32,246.06Z" style="fill:#263238"></path><path d="M239.3,258.36h4s-.42-8.34,3.19-8.2,7.65,10.42,7.65,10.42L257,257.8s-1.81-9.17.28-11.26,8.19,2.64,8.19,2.64l.14-5s-3.89-6.11-9-3.89-4.17,10-4.17,10-4.45-7.23-9-6.26S239,254.6,239.3,258.36Z" style="fill:#fff"></path><path d="M254.17,261.08h-.1a.51.51,0,0,1-.37-.31c-1.09-2.77-4.5-10-7.19-10.1a1.49,1.49,0,0,0-1.2.48c-1.44,1.46-1.56,5.68-1.48,7.19a.55.55,0,0,1-.14.37.5.5,0,0,1-.36.16h-4a.51.51,0,0,1-.5-.47c-.38-5.11-.31-13.83,4.42-14.84,3.57-.75,6.94,2.91,8.56,5,0-2.53.65-7.07,4.55-8.76,5.47-2.36,9.61,4,9.66,4.08a.47.47,0,0,1,.07.28l-.14,5a.47.47,0,0,1-.28.43.51.51,0,0,1-.52,0c-1.5-1.16-6.09-4.13-7.54-2.68s-.63,8.32-.14,10.8a.49.49,0,0,1-.14.45l-2.78,2.78A.47.47,0,0,1,254.17,261.08Zm-7.74-11.43h.11c3.38.13,6.77,7.54,7.81,10l2.06-2.06c-.33-1.73-1.61-9.37.46-11.44,1.92-1.92,6.25.75,8.08,2l.11-3.9c-.58-.85-4-5.45-8.33-3.57-4.73,2.05-3.88,9.41-3.87,9.48a.51.51,0,0,1-.33.54.5.5,0,0,1-.59-.21c-.05-.07-4.33-6.92-8.51-6s-3.88,9.88-3.66,13.33h3c0-1.49.09-5.7,1.79-7.42A2.5,2.5,0,0,1,246.43,249.65Z" style="fill:#263238"></path><polygon points="243.33 258.36 212.48 278.64 206.78 278.64 239.3 258.36 243.33 258.36" style="fill:#fff"></polygon><path d="M212.48,279.14h-5.7a.49.49,0,0,1-.48-.36.51.51,0,0,1,.21-.56L239,257.93a.5.5,0,0,1,.27-.07h4a.5.5,0,0,1,.48.35.5.5,0,0,1-.21.56l-30.85,20.29A.45.45,0,0,1,212.48,279.14Zm-3.95-1h3.8l29.33-19.28h-2.22Z" style="fill:#263238"></path><path d="M255.46,272.76a3.2,3.2,0,0,0-1.06-4.7,23.72,23.72,0,0,1-4-2.76c-2.92-2.5-4.59-5.69-6.26-5.69a2.46,2.46,0,0,0-2.36,3.33,28.73,28.73,0,0,0,3.06,5.28,44.79,44.79,0,0,0,6.95,5.42A3.17,3.17,0,0,0,255.46,272.76Z" style="fill:#fff"></path><path d="M253.05,274.38a3.74,3.74,0,0,1-1.45-.28,45.55,45.55,0,0,1-7.13-5.56,29.67,29.67,0,0,1-3.13-5.41,2.77,2.77,0,0,1,.26-2.64,3.1,3.1,0,0,1,2.56-1.38c1.23,0,2.3,1.22,3.65,2.78a28.37,28.37,0,0,0,2.93,3,24.29,24.29,0,0,0,3.9,2.71,3.76,3.76,0,0,1,1.88,2.59,3.46,3.46,0,0,1-.67,2.85h0A3.5,3.5,0,0,1,253.05,274.38Zm-8.89-14.27a2.09,2.09,0,0,0-1.73.93,1.77,1.77,0,0,0-.17,1.71,28.88,28.88,0,0,0,3,5.15,47.81,47.81,0,0,0,6.77,5.29,2.69,2.69,0,0,0,3.06-.74h0a2.44,2.44,0,0,0,.47-2,2.86,2.86,0,0,0-1.39-1.92,25.19,25.19,0,0,1-4.06-2.82,27.49,27.49,0,0,1-3-3.14C245.92,261.24,244.93,260.11,244.16,260.11Zm11.3,12.65h0Z" style="fill:#263238"></path><path d="M244.86,268.22s.14.56-2.5-1.11-5.15-3.75-5.84-1.95.55,5.29,4.45,7.65,6.39,3.89,9.31,4.17,2.92-3.06,2.92-3.06Z" style="fill:#fff"></path><path d="M250.62,277.49h-.39c-3-.29-5.57-1.85-9.45-4.2-4.05-2.46-5.56-6.13-4.73-8.29A1.47,1.47,0,0,1,237,264c1.1-.35,2.56.62,4.41,1.84l1.23.81a11.06,11.06,0,0,0,2,1.09.51.51,0,0,1,.52,0l8.34,5.7a.5.5,0,0,1,.22.41,4.28,4.28,0,0,1-1.15,2.87A2.75,2.75,0,0,1,250.62,277.49ZM237.47,265a.48.48,0,0,0-.18,0c-.06,0-.19.06-.3.35-.57,1.46.39,4.71,4.24,7s6.31,3.83,9.09,4.1a2,2,0,0,0,1.56-.43,3.09,3.09,0,0,0,.8-1.88l-7.84-5.36c-.37.05-1-.19-2.75-1.28-.42-.26-.84-.54-1.25-.81C239.59,265.89,238.19,265,237.47,265Z" style="fill:#263238"></path><path d="M238.6,271a2.29,2.29,0,0,1-2.22-.55,2,2,0,0,0-3.2.55c-.41,1.25,3.2,4.73,7.23,6.12s7.92,1.53,8.89.69l1-.83A54.86,54.86,0,0,1,238.6,271Z" style="fill:#fff"></path><path d="M246.85,278.82a21.35,21.35,0,0,1-6.6-1.23c-4-1.39-8.11-5-7.54-6.75a2.12,2.12,0,0,1,1.5-1.39,2.7,2.7,0,0,1,2.5.62,1.81,1.81,0,0,0,1.72.46.51.51,0,0,1,.45.06,53.78,53.78,0,0,0,11.56,5.91.53.53,0,0,1,.33.38.51.51,0,0,1-.17.48l-1,.83A4.55,4.55,0,0,1,246.85,278.82Zm-12-8.46a1.75,1.75,0,0,0-.4.05,1.14,1.14,0,0,0-.81.75c-.25.76,2.88,4.09,6.91,5.48s7.69,1.4,8.41.79l.32-.28a58.16,58.16,0,0,1-10.79-5.61,2.84,2.84,0,0,1-2.46-.72A1.81,1.81,0,0,0,234.87,270.36Z" style="fill:#263238"></path><path d="M235.82,274.89s-2.91-1-3.47,0-1.39,1.39,3.61,2.92a18.18,18.18,0,0,0,8.9.56S236.38,275.59,235.82,274.89Z" style="fill:#fff"></path><path d="M241.69,279.18a20.17,20.17,0,0,1-5.87-.89c-3.34-1-4.1-1.55-4.33-2.16a1.39,1.39,0,0,1,.29-1.26l.14-.23c.7-1.23,3.29-.48,4.06-.22a.44.44,0,0,1,.22.15c.48.43,4.85,2,8.81,3.32a.52.52,0,0,1,.35.49.5.5,0,0,1-.38.47A14,14,0,0,1,241.69,279.18ZM233.47,275c-.36,0-.62.06-.69.18l-.15.26a1.57,1.57,0,0,0-.2.38c0,.14.49.58,3.68,1.55a18.9,18.9,0,0,0,6.51.82,45.41,45.41,0,0,1-7-2.81A7.38,7.38,0,0,0,233.47,275Z" style="fill:#263238"></path><polygon points="172 194.74 176.81 202.06 172.96 207.06 170.46 198.98 172 194.74" style="fill:#92E3A9"></polygon><path d="M173,207.56h-.08a.47.47,0,0,1-.39-.34L170,199.12a.47.47,0,0,1,0-.31l1.54-4.24a.5.5,0,0,1,.41-.32.47.47,0,0,1,.48.22l4.81,7.31a.5.5,0,0,1,0,.58l-3.85,5A.49.49,0,0,1,173,207.56ZM171,199l2.17,7,3-4-4.07-6.18Z" style="fill:#263238"></path><polygon points="176.81 202.06 177.58 211.1 172.96 207.06 176.81 202.06" style="fill:#92E3A9"></polygon><path d="M177.58,211.6a.52.52,0,0,1-.33-.12l-4.62-4a.52.52,0,0,1-.06-.69l3.85-5a.49.49,0,0,1,.53-.17.49.49,0,0,1,.36.43l.77,9.05a.5.5,0,0,1-.27.49A.59.59,0,0,1,177.58,211.6ZM173.65,207l3.33,2.92-.56-6.53Z" style="fill:#263238"></path><path d="M216,162.58s-3.28,4.32-3.83,6.52a70.2,70.2,0,0,0-1.79,7.89c-.75,4.46,0,6.79-1.57,9.88s-5.78,1-5.78,1a7.7,7.7,0,0,1-2.64.46c-.81-.16-5.41,4.75-9,8.66s-4.55,4.69-6.66,3.67-10.54-6.8-10.54-6.8l-7.35,12.8L140.64,178,156,158.46s1.17-6.56,6.8-16.12,24-12.27,32.33-12.81,21.06,10.07,23.72,16.89S216.3,162,216,162.58Z" style="fill:#fff"></path><path d="M166.83,207.2a.49.49,0,0,1-.37-.16l-26.19-28.76a.5.5,0,0,1,0-.64l15.31-19.39c.2-1,1.58-7.24,6.84-16.16,6.37-10.82,28.38-12.78,32.73-13.06,8.81-.57,21.53,10.32,24.22,17.21,2.84,7.29-2.91,16.52-3,16.61l0,0s-3.22,4.27-3.74,6.34c-.14.54-.27,1-.4,1.5a55.3,55.3,0,0,0-1.38,6.35,32.83,32.83,0,0,0-.41,4.26,13,13,0,0,1-1.21,5.76c-1.37,2.68-4.59,2.1-6.26,1.36a7.27,7.27,0,0,1-2.7.41c-.32.09-2,1.31-8.51,8.51-3.42,3.76-4.73,5-7.24,3.78-1.86-.9-8.38-5.31-10.17-6.53L167.27,207a.51.51,0,0,1-.38.25ZM141.3,177.92l25.44,27.94,7-12.21a.51.51,0,0,1,.33-.24.5.5,0,0,1,.39.08c.08.06,8.44,5.77,10.48,6.76,1.73.84,2.47.41,6.07-3.55,7.61-8.37,8.81-8.95,9.44-8.82a7.1,7.1,0,0,0,2.38-.44.55.55,0,0,1,.38,0c.15.08,3.78,1.79,5.11-.82a12,12,0,0,0,1.11-5.36,34.88,34.88,0,0,1,.42-4.37,55.42,55.42,0,0,1,1.41-6.46c.13-.47.25-.95.39-1.47.55-2.22,3.63-6.34,3.89-6.69s5.45-9.08,2.88-15.69-15-17.12-23.22-16.57c-4.26.27-25.83,2.19-31.94,12.56-5.52,9.38-6.72,15.9-6.74,16a.37.37,0,0,1-.1.22ZM216,162.58h0Z" style="fill:#263238"></path><polygon points="136.94 176.24 146.9 168.27 173.87 201.9 172.16 211.86 136.94 176.24" style="fill:#92E3A9"></polygon><path d="M172.16,212.36a.51.51,0,0,1-.36-.15l-35.22-35.62a.49.49,0,0,1-.14-.38.52.52,0,0,1,.19-.36l10-8a.49.49,0,0,1,.7.07l27,33.63a.52.52,0,0,1,.1.4l-1.71,10a.5.5,0,0,1-.34.39Zm-34.48-36.08,34.15,34.54,1.51-8.79L146.83,169Z" style="fill:#263238"></path><path d="M195.21,141.66s.32,5.76-1.21,7.4-11.51,3.07-11.51,3.07-6.27,27-5.45,29,9.77-1.6,15.82.92,10.59,5.35,9.69,6.87-9.6,8.78-11.09,10.79-3.9,5.67-9.48,2.63S170.3,193.26,168,186.88s-2.42-11.14-1.75-12.71,6.06-13.6,6.43-14.25-3.86,4.82-8,4.74-7,.45-9.83-1.81c-3.46-2.75-5.51-8.24-6.28-12.41a18.7,18.7,0,0,1,3.89-15c3.27-4,7.37-5.53,12.41-5.81,0,0,4.64-11.77,16.25-14.87,9.13-2.43,25.84-3.18,34.47,15.24a13.52,13.52,0,0,1,9.24,5.45c3.72,5.1-.65,13.21-.65,13.21s3.57,1.55,1.94,8S216,162.58,216,162.58s3.13-5.45.84-11.11-8.15-9.72-12.68-10.73A16.08,16.08,0,0,0,195.21,141.66Z" style="fill:#263238"></path><path d="M185.88,204a8.73,8.73,0,0,1-4.14-1.22c-5.3-2.88-11.74-8.86-14.17-15.73-2.19-6.16-2.53-11.24-1.74-13.08.5-1.16,3.59-8.08,5.31-11.86-1.6,1.42-4,3.12-6.39,3-.74,0-1.43,0-2.1,0-3.11,0-5.57,0-8-1.92-3.56-2.83-5.67-8.42-6.46-12.71a19.1,19.1,0,0,1,4-15.37c3-3.71,7-5.62,12.46-6,.83-1.87,5.79-12,16.46-14.87,7.4-2,25.55-4.41,34.93,15.25a14,14,0,0,1,9.31,5.62c3.41,4.67.47,11.53-.4,13.32,1,.69,3.15,2.88,1.77,8.33-1.71,6.79-10.67,6.25-10.76,6.24a.5.5,0,0,1-.4-.74c0-.06,3-5.32.82-10.68s-8-9.46-12.33-10.42a15.58,15.58,0,0,0-8.29.76c.06,1.39.1,5.86-1.35,7.41s-9.51,2.88-11.47,3.18c-2.4,10.36-5.92,26.94-5.39,28.36.22.53,2.56.27,4.45.06,3.22-.36,7.63-.86,11.1.59,2.75,1.14,9.24,4.07,10,6.42a1.37,1.37,0,0,1-.1,1.16c-.46.78-2.4,2.57-5.53,5.43a68.18,68.18,0,0,0-5.59,5.41l-.14.2C190.66,201.66,188.94,204,185.88,204Zm-13.13-44.65a.46.46,0,0,1,.29.11.56.56,0,0,1,.11.7c-.34.6-5.67,12.49-6.4,14.21-.56,1.29-.57,5.78,1.76,12.34s8.58,12.4,13.71,15.19,7.23-.28,8.69-2.28l.15-.2a64.45,64.45,0,0,1,5.72-5.56,55.52,55.52,0,0,0,5.34-5.2.37.37,0,0,0,0-.34c-.44-1.32-4.15-3.6-9.46-5.81-3.23-1.35-7.32-.89-10.6-.52-3,.34-5,.56-5.49-.67-.84-2,4.37-24.76,5.42-29.3a.5.5,0,0,1,.42-.38c3.79-.55,10.19-1.82,11.21-2.92s1.17-5.49,1.08-7a.51.51,0,0,1,.3-.49,16.47,16.47,0,0,1,9.22-.95,19.71,19.71,0,0,1,13,11,14,14,0,0,1-.51,10.8c2.08,0,7.72-.62,9-5.5,1.5-5.93-1.53-7.38-1.66-7.44a.51.51,0,0,1-.27-.29.51.51,0,0,1,0-.4c0-.08,4.18-7.9.68-12.67a13.13,13.13,0,0,0-8.86-5.25.5.5,0,0,1-.42-.29c-9-19.26-26.71-16.88-33.89-15-11.22,3-15.87,14.46-15.91,14.58a.5.5,0,0,1-.44.31c-5.39.3-9.11,2-12,5.63a18.09,18.09,0,0,0-3.79,14.56c.76,4.11,2.76,9.45,6.1,12.11,2.18,1.74,4.37,1.72,7.4,1.7h2.13c2,.05,4.49-1.42,7.3-4.34C172.31,159.56,172.52,159.35,172.75,159.35Z" style="fill:#263238"></path><path d="M197.81,163.41a1.07,1.07,0,0,1-.52-.14l-22.46-13.58a1,1,0,0,1-.33-1.37,1,1,0,0,1,1.37-.34l22.45,13.58a1,1,0,0,1,.34,1.37A1,1,0,0,1,197.81,163.41Z" style="fill:#263238"></path><path d="M202.82,179.44a5.15,5.15,0,0,1-.55,0,8.69,8.69,0,0,1-6.05-3.57c-4.4-5.39,1.25-15,1.49-15.38a1,1,0,0,1,1.37-.34l13.57,8.11a1,1,0,0,1,.44,1.15c-.06.2-1.52,5-4.34,7.54A9.23,9.23,0,0,1,202.82,179.44ZM199,162.38c-1.2,2.33-4,8.72-1.18,12.21a6.8,6.8,0,0,0,4.66,2.84,7,7,0,0,0,5-2,15.8,15.8,0,0,0,3.51-5.9Z" style="fill:#263238"></path><path d="M210.47,181.65a1,1,0,0,1,0-2,8.58,8.58,0,0,0,5.23-2.07,11,11,0,0,0,2.41-3.29l-6.52-4.36a1,1,0,1,1,1.11-1.66l7.18,4.8a1,1,0,0,1,.41,1.08,11.5,11.5,0,0,1-3.19,4.87,10.55,10.55,0,0,1-6.61,2.63Z" style="fill:#263238"></path><path d="M210,166.14a1.48,1.48,0,0,1-1.44-1.12c-1.1-4.16-5.51-3.54-6-3.46a1.5,1.5,0,0,1-.52-2.95c2.63-.46,8,.12,9.43,5.65a1.5,1.5,0,0,1-1.07,1.83A1.31,1.31,0,0,1,210,166.14Z" style="fill:#263238"></path><path d="M204.93,170.47c-.51,1.22-1.41,2-2,1.74s-.69-1.44-.19-2.65,1.41-2,2-1.74S205.43,169.26,204.93,170.47Z" style="fill:#263238"></path><path d="M175.56,157.39s3.17-4.5.82-8.56-10.95-2.57-12.57,2.79.75,14.42,3,15.15S173.37,161.26,175.56,157.39Z" style="fill:#fff"></path><path d="M167.22,167.32a1.53,1.53,0,0,1-.52-.08c-2.63-.83-5-10.24-3.37-15.76,1-3.27,4.33-5.08,7.2-5.41s5.2.64,6.28,2.51c2.43,4.18-.55,8.69-.83,9.08C174.64,160,170.25,167.32,167.22,167.32ZM171.59,147c-.3,0-.62,0-.94.05-2.55.3-5.51,1.87-6.37,4.71-1.63,5.4,1,14,2.72,14.52s5.33-4.21,8.13-9.14c0,0,0,0,0-.05s3-4.29.8-8A4.83,4.83,0,0,0,171.59,147Z" style="fill:#263238"></path><path d="M195.21,191a.45.45,0,0,1-.2,0,8.75,8.75,0,0,1-5.43-6.37A.5.5,0,0,1,190,184a.51.51,0,0,1,.57.42,7.79,7.79,0,0,0,4.84,5.59.5.5,0,0,1-.2,1Z" style="fill:#fff"></path><path d="M234.85,302.49s33.74,1.77,34.49,9.32-32,121.28-32,121.28a23.78,23.78,0,0,1,2.27,3.28,31.58,31.58,0,0,1,.5,3.77s3.27,2.27,8.06,5.79,15.35,6.3,15.35,7.3a5,5,0,0,1-2.77,4.28c-2.26,1.26-16.61,2-21.14,1s-13.6-5-15.86-6.29-18.13-7.05-18.63-10.83,2.26-10.57,4-12.59,6.55-6,6.55-6l13.59-85.53H189S214.71,308,234.85,302.49Z" style="fill:#263238"></path><path d="M246.44,459.49a37.13,37.13,0,0,1-6.91-.48c-4.63-1-13.84-5.15-16-6.35-.48-.26-1.65-.77-3.14-1.4-7.74-3.33-15.34-6.82-15.74-9.79-.51-3.81,2.23-10.79,4.15-13a84.74,84.74,0,0,1,6.45-6l13.48-84.77H189a.5.5,0,0,1-.45-.3.49.49,0,0,1,.08-.53c.26-.3,26-29.38,46.06-34.9l.16,0c3.5.19,34.19,2,35,9.77.75,7.46-29.8,113.87-31.92,121.22a19.39,19.39,0,0,1,2.19,3.23,26.88,26.88,0,0,1,.51,3.66c.77.53,3.79,2.65,7.87,5.66,2.65,2,7.22,3.71,10.57,5,3.88,1.49,5,2,5,2.7a5.49,5.49,0,0,1-3,4.72C259.38,458.87,252.3,459.49,246.44,459.49ZM190.16,336.74h39.15a.49.49,0,0,1,.38.17.49.49,0,0,1,.12.4l-13.6,85.54a.48.48,0,0,1-.17.3s-4.77,4-6.49,6-4.4,8.53-3.91,12.19c.36,2.67,10.35,6.95,15.15,9,1.57.67,2.71,1.16,3.23,1.45C226.14,453,235.2,457,239.74,458s18.78.17,20.8-.95a4.64,4.64,0,0,0,2.51-3.73,26.66,26.66,0,0,0-4.35-1.89c-3.4-1.31-8-3.1-10.8-5.13-4.72-3.47-8-5.75-8-5.78a.47.47,0,0,1-.22-.37,28.53,28.53,0,0,0-.48-3.66,20.77,20.77,0,0,0-2.18-3.11.54.54,0,0,1-.09-.46c.33-1.13,32.69-113.72,32-121.09-.59-5.83-24.62-8.37-33.94-8.86C217.06,308,194.52,332,190.16,336.74Z" style="fill:#263238"></path><path d="M302.32,431.08c-2.77-.5-9.56,2.77-15.6,3.78s-12.84-1.26-12.84-1.26l.25-4.79s-3.78-2.77-4.79-5.54-15.61-81-15.61-81-9.56-34.24-11.83-38-80.06-10.33-80.06-10.33l-68.45-9.15s-4.78,26-2.51,36.34,11.33,18.13,20.64,18.63,100.67,0,100.67,0l30.9,78.76-.62.7,4.47,9.1-2.68,10.54L253.1,450c1.1,7.38,3.42,10,11.87,9,11.88-1.43,24.93-6.14,32.57-15.82C301.32,438.38,305.09,431.58,302.32,431.08Z" style="fill:#263238"></path><path d="M261.94,459.68c-6.55,0-8.38-3.33-9.31-9.45l-8.76-11.07a.51.51,0,0,1-.1-.44l2.64-10.36L242,419.43a.51.51,0,0,1,.08-.55l.42-.47-30.67-78.15c-6.15,0-91.42.48-100.35,0-9.77-.53-18.84-8.7-21.11-19s2.31-35.47,2.51-36.54a.49.49,0,0,1,.56-.4l68.45,9.15c8,.67,78.09,6.68,80.42,10.56s11.5,36.74,11.89,38.14c5,27.08,14.81,78.8,15.59,81,.95,2.6,4.58,5.28,4.61,5.31a.49.49,0,0,1,.21.43l-.23,4.39c1.47.44,7.16,2,12.23,1.13a60.63,60.63,0,0,0,8.07-2.15c3.25-1,6.06-1.92,7.71-1.62h0a1.53,1.53,0,0,1,1.23,1c.94,2.49-3.32,8.87-5.71,11.89-6.68,8.47-18.67,14.3-32.9,16A25.31,25.31,0,0,1,261.94,459.68ZM244.8,438.73l8.69,11a.43.43,0,0,1,.1.24c1,6.85,2.83,9.55,11.32,8.53,14-1.67,25.72-7.37,32.24-15.63,3.61-4.57,6.1-9.47,5.55-10.92a.53.53,0,0,0-.47-.36h0c-1.4-.25-4.23.64-7.22,1.59a63.07,63.07,0,0,1-8.21,2.19c-6.1,1-12.8-1.18-13.08-1.28a.48.48,0,0,1-.34-.5l.23-4.52c-.84-.65-3.82-3.09-4.74-5.6-1-2.78-15-77.89-15.63-81.09-.08-.3-9.56-34.17-11.77-37.85-1.7-2.6-49.77-7.56-79.67-10.08l-68-9.09c-.63,3.56-4.48,26.33-2.43,35.68,2.17,9.89,10.85,17.73,20.18,18.23s99.73,0,100.64,0h0a.5.5,0,0,1,.47.32l30.9,78.76a.5.5,0,0,1-.09.51l-.4.45,4.32,8.8a.5.5,0,0,1,0,.34Z" style="fill:#263238"></path><path d="M103,209.11S99,217.72,95,240s-6.3,42,.43,49.25,27.44,10.73,43.73,10.1,34.79-2.11,38.08-4.46-1.12-15-3.79-36.16-3.91-48-4.22-50.52S165.76,193.6,155,187s-17.07-9.4-26.94-7.21S104.21,205.35,103,209.11Z" style="fill:#92E3A9"></path><path d="M135.32,299.89c-15.48,0-33.82-3.42-40.28-10.34-7.1-7.59-4.47-28.36-.56-49.68s7.77-30.41,8-30.94c1.17-3.44,15.22-27.33,25.41-29.6,9.7-2.15,16,.38,27.31,7.27,10.43,6.34,14,17.94,14.49,21.51.08.65.22,2.85.43,6.19.63,10,1.81,28.59,3.79,44.32,1,7.63,2.16,14.2,3.12,19.49,1.82,10,2.82,15.47.46,17.15-4.23,3-30.42,4.25-38.35,4.55C137.9,299.86,136.62,299.89,135.32,299.89Zm-1.07-120.31a28.05,28.05,0,0,0-6.13.73c-9.51,2.11-23.29,24.74-24.69,29,0,0,0,0,0,0s-3.94,8.84-8,30.74c-3.67,20.05-6.51,41.53.31,48.82,6.56,7,27.19,10.57,43.34,9.94s34.63-2.09,37.81-4.36c1.84-1.32.76-7.22-.86-16.16-1-5.3-2.17-11.89-3.13-19.54-2-15.77-3.17-34.38-3.8-44.39-.2-3.19-.35-5.51-.43-6.13,0-.13-2.18-13.58-14-20.78C146.41,182.41,140.88,179.58,134.25,179.58ZM103,209.11Z" style="fill:#263238"></path><path d="M131.14,270.51a.52.52,0,0,1-.48-.37.5.5,0,0,1,.35-.61,50.23,50.23,0,0,0,5.18-1.82.5.5,0,0,1,.65.27.49.49,0,0,1-.27.65,51.54,51.54,0,0,1-5.29,1.86Z" style="fill:#263238"></path><path d="M140,267a.49.49,0,0,1-.44-.27.5.5,0,0,1,.21-.68c7.49-3.9,10.87-8.45,10.9-8.5a.5.5,0,1,1,.81.59c-.14.19-3.53,4.78-11.25,8.8A.46.46,0,0,1,140,267Z" style="fill:#263238"></path><path d="M112.84,237.69h-.12c-.89-.23-1.7-.46-2.4-.69a.5.5,0,1,1,.31-1c.68.22,1.47.44,2.34.67a.5.5,0,0,1,.35.61A.49.49,0,0,1,112.84,237.69Z" style="fill:#263238"></path><path d="M139.6,242h0c-.13,0-13.41-1.45-23.06-3.47a.5.5,0,0,1,.21-1c9.59,2,22.82,3.44,23,3.46a.5.5,0,0,1,.44.55A.51.51,0,0,1,139.6,242Z" style="fill:#263238"></path><path d="M118,245.6a28.63,28.63,0,0,1-2.88-.13.5.5,0,1,1,.1-1c7.2.77,21-2.15,21.14-2.18a.5.5,0,0,1,.6.38.51.51,0,0,1-.39.6C136.07,243.37,125.53,245.6,118,245.6Z" style="fill:#263238"></path><path d="M193.48,254.05s1.72-3.13,4.22-3.75,4.55.93,4.55,2.66a9.32,9.32,0,0,0,.31,2.66s4.85,2,5.79,5.48-.62,5.17-.47,5.64,2,1.1,1.88,2.82a12.76,12.76,0,0,1-1.72,4.23,5,5,0,0,1-.63,1.56c-.62,1.26-1.72,1.41-2.35,1.73s-13.62,0-13.62,0,5.64-14.57,4.07-17.7A25,25,0,0,1,193.48,254.05Z" style="fill:#fff"></path><path d="M200.81,277.72c-2.93,0-6.68-.08-9.38-.14a.51.51,0,0,1-.41-.23.5.5,0,0,1-.05-.46c1.55-4,5.3-14.88,4.09-17.29a25.38,25.38,0,0,1-2.07-5.44.48.48,0,0,1,0-.35c.07-.13,1.86-3.33,4.54-4a4.5,4.5,0,0,1,3.89.72,3.12,3.12,0,0,1,1.28,2.43,10.41,10.41,0,0,0,.23,2.3c1,.46,5,2.47,5.86,5.71a7.64,7.64,0,0,1-.31,5.26c-.05.12-.11.27-.14.36l.31.25a3.1,3.1,0,0,1,1.56,2.76,12.61,12.61,0,0,1-1.74,4.36,8.33,8.33,0,0,1-.66,1.62,3.58,3.58,0,0,1-2.17,1.77l-.4.17A24.37,24.37,0,0,1,200.81,277.72Zm-8.65-1.13c4.84.11,12.05.2,12.73,0a4.34,4.34,0,0,1,.44-.19,2.61,2.61,0,0,0,1.64-1.29,5.9,5.9,0,0,0,.57-1.38.38.38,0,0,1,.08-.23,12.41,12.41,0,0,0,1.64-4c.09-.92-.61-1.45-1.17-1.88a1.78,1.78,0,0,1-.68-.73,1.55,1.55,0,0,1,.19-1,6.61,6.61,0,0,0,.27-4.63c-.86-3.16-5.46-5.13-5.51-5.15a.49.49,0,0,1-.28-.3,10.09,10.09,0,0,1-.33-2.82,2.14,2.14,0,0,0-.89-1.64,3.51,3.51,0,0,0-3-.54c-1.95.49-3.43,2.73-3.81,3.35a26.4,26.4,0,0,0,2,5C197.43,262.11,193.34,273.46,192.16,276.59Z" style="fill:#263238"></path><path d="M195.67,256.56s4.54,6.11,4.85,10.65-1.25,8-6.26,9.71-13.94,2-18.79.78a38.63,38.63,0,0,1-6.43-2S182.83,273,195.67,256.56Z" style="fill:#fff"></path><path d="M182.86,279a31.81,31.81,0,0,1-7.52-.77,38.19,38.19,0,0,1-6.52-2.08.49.49,0,0,1-.27-.51.52.52,0,0,1,.4-.43c.14,0,13.76-2.83,26.32-18.92a.44.44,0,0,1,.4-.19.51.51,0,0,1,.4.2c.19.26,4.63,6.28,5,10.91.36,5.23-1.8,8.57-6.6,10.22A38.79,38.79,0,0,1,182.86,279Zm-12.22-3.21c1,.35,2.57.85,5,1.47,4.86,1.25,13.68.88,18.51-.77,4.37-1.51,6.25-4.43,5.92-9.21-.24-3.58-3.29-8.28-4.37-9.85C185.41,270.25,174.54,274.55,170.64,275.75Z" style="fill:#263238"></path><path d="M119.71,220.23s11,12.21,19.89,21.3,25.22,34.14,25.22,34.14.78-.16,5.32-1.41,21.14-18.95,21.14-18.95l-8.92-16.45c-3.14-5.32-9.87-32.73-17.39-46.51S151.66,177,151.66,177s-13.94-5.64-26.15,1.72-21,22.24-25.06,38.22" style="fill:#92E3A9"></path><path d="M164.82,276.17a.5.5,0,0,1-.42-.23c-.17-.25-16.37-25.12-25.15-34.06s-19.8-21.2-19.91-21.32a.5.5,0,1,1,.74-.67c.11.12,11.06,12.31,19.88,21.28,8.34,8.49,23.22,31.09,25.08,33.93.54-.13,1.88-.47,5-1.33,3.43-.94,14.87-12.39,20.66-18.54l-8.75-16.13c-1.29-2.18-3.11-7.84-5.42-15-3.34-10.39-7.51-23.33-12-31.5-7.28-13.35-12.95-15.09-13-15.11s-13.91-5.47-25.77,1.67c-11.22,6.76-20.5,20.94-24.83,37.91a.49.49,0,0,1-.6.36.51.51,0,0,1-.37-.61c4.46-17.48,13.68-31.52,25.29-38.51,12.29-7.41,26.46-1.82,26.6-1.76s6,1.76,13.56,15.57c4.5,8.25,8.68,21.24,12,31.68,2.2,6.82,4.1,12.71,5.34,14.82l8.93,16.46a.48.48,0,0,1-.07.58c-.68.73-16.75,17.81-21.38,19.09s-5.32,1.41-5.36,1.42Z" style="fill:#263238"></path><path d="M187.05,247.32s-7.2,10.65-10.8,13.62S160,268,160,268s-.63-1.09-.31,1.1c.19,1.32,2,4,3.47,5.84A8.16,8.16,0,0,0,168,278a18.77,18.77,0,0,0,6.41.2c5.17-.78,10.57-5.36,15.42-10.69s6.27-9.39,5.8-11-1.88-2.82-3.13-4.23S189.25,245.28,187.05,247.32Z" style="fill:#92E3A9"></path><path d="M171.9,278.9a20.15,20.15,0,0,1-4-.4,8.69,8.69,0,0,1-5.22-3.26c-2.21-2.9-3.4-4.94-3.57-6.08s-.15-1.74.35-1.91a.63.63,0,0,1,.64.16c2-.66,12.62-4.23,15.79-6.85,3.51-2.9,10.64-13.41,10.71-13.52l.07-.09a1.86,1.86,0,0,1,1.57-.55c1.42.21,2.54,2.17,3.54,3.89a13.38,13.38,0,0,0,1.09,1.71l.74.81a9.74,9.74,0,0,1,2.5,3.61c.55,1.86-1.05,6.12-5.91,11.44-6,6.61-11.17,10.16-15.71,10.85A17.61,17.61,0,0,1,171.9,278.9Zm-11.82-10.42q0,.21.06.54c.14.94,1.33,2.93,3.37,5.61a7.72,7.72,0,0,0,4.63,2.89,18.07,18.07,0,0,0,6.24.2c4.31-.65,9.26-4.1,15.12-10.53,4.88-5.35,6.07-9.2,5.69-10.49a9.14,9.14,0,0,0-2.27-3.21l-.76-.83a13,13,0,0,1-1.21-1.87c-.79-1.38-1.88-3.26-2.82-3.4a.83.83,0,0,0-.7.26c-.6.89-7.34,10.77-10.86,13.68s-15.93,7-16.46,7.14Z" style="fill:#263238"></path><path d="M179.34,268.52a.48.48,0,0,1-.41-.21.51.51,0,0,1,.12-.7c7.58-5.22,13-15.41,13-15.51a.5.5,0,0,1,.89.46c-.23.43-5.58,10.51-13.36,15.87A.49.49,0,0,1,179.34,268.52Z" style="fill:#263238"></path><path d="M165.68,272.27a.51.51,0,0,1-.5-.44.5.5,0,0,1,.44-.55s2.43-.41,7.77-5a.5.5,0,0,1,.7.06.49.49,0,0,1-.05.7c-5.68,4.87-8.2,5.2-8.31,5.21Z" style="fill:#263238"></path></g><g id="freepik--Table--inject-374"><path d="M269.74,270.19a5.63,5.63,0,0,1,0,7H320l1.48-3.82-1.91-3.4Z" style="fill:#fff"></path><path d="M320,277.7H269.74a.5.5,0,0,1-.4-.79,5.12,5.12,0,0,0,0-6.39.49.49,0,0,1-.08-.53.5.5,0,0,1,.45-.3l49.8-.21h0a.51.51,0,0,1,.44.26l1.91,3.39a.54.54,0,0,1,0,.43l-1.49,3.82A.48.48,0,0,1,320,277.7Zm-49.31-1h49l1.27-3.28-1.65-2.94-48.58.21A6.07,6.07,0,0,1,270.66,276.7Z" style="fill:#263238"></path><path d="M320,277v-6.41H272.81V269h62.74a4.81,4.81,0,1,1,0,9.61H272.81V277Z" style="fill:#92E3A9"></path><path d="M335.55,279.13H272.81a.5.5,0,0,1-.5-.5V277a.5.5,0,0,1,.5-.5h46.66v-5.41H272.81a.5.5,0,0,1-.5-.5V269a.5.5,0,0,1,.5-.5h62.74a5.31,5.31,0,1,1,0,10.61Zm-62.24-1h62.24a4.31,4.31,0,1,0,0-8.61H273.31v.6H320a.5.5,0,0,1,.5.5V277a.5.5,0,0,1-.5.5H273.31Z" style="fill:#263238"></path><path d="M320,273.82h0a3.21,3.21,0,0,0-3.21-3.2H267.83V269h49.84a4.61,4.61,0,0,1,4.61,4.61h0a5,5,0,0,1-5,5H267.83V277h48.93A3.21,3.21,0,0,0,320,273.82Z" style="fill:#92E3A9"></path><path d="M317.27,279.13H267.83a.5.5,0,0,1-.5-.5V277a.5.5,0,0,1,.5-.5h48.93a2.71,2.71,0,1,0,0-5.41H267.83a.51.51,0,0,1-.5-.5V269a.5.5,0,0,1,.5-.5h49.84a5.12,5.12,0,0,1,5.11,5.11A5.51,5.51,0,0,1,317.27,279.13Zm-48.94-1h48.94a4.51,4.51,0,0,0,4.51-4.5,4.12,4.12,0,0,0-4.11-4.11H268.33v.6h48.43a3.71,3.71,0,1,1,0,7.41H268.33Z" style="fill:#263238"></path><path d="M269.12,250.45a5.64,5.64,0,0,1,0,7h50.22l1.49-3.83-1.91-3.39Z" style="fill:#fff"></path><path d="M319.34,258H269.12a.49.49,0,0,1-.44-.28.49.49,0,0,1,0-.52,5.12,5.12,0,0,0,0-6.39.51.51,0,0,1-.07-.53.48.48,0,0,1,.45-.29l49.8-.21a.48.48,0,0,1,.44.25l1.91,3.4a.54.54,0,0,1,0,.43l-1.49,3.82A.5.5,0,0,1,319.34,258ZM270,257h49l1.28-3.29-1.65-2.93-48.59.2A6,6,0,0,1,270,257Z" style="fill:#263238"></path><path d="M319.34,257.28v-6.41H272.19v-1.6h62.74a4.81,4.81,0,1,1,0,9.61H272.19v-1.6Z" style="fill:#92E3A9"></path><path d="M334.93,259.38H272.19a.5.5,0,0,1-.5-.5v-1.6a.5.5,0,0,1,.5-.5h46.65v-5.41H272.19a.5.5,0,0,1-.5-.5v-1.6a.5.5,0,0,1,.5-.5h62.74a5.31,5.31,0,1,1,0,10.61Zm-62.24-1h62.24a4.31,4.31,0,1,0,0-8.61H272.69v.6h46.65a.5.5,0,0,1,.5.5v6.41a.5.5,0,0,1-.5.5H272.69Z" style="fill:#263238"></path><path d="M319.34,254.08h0a3.21,3.21,0,0,0-3.2-3.21H267.21v-1.6H317a4.61,4.61,0,0,1,4.61,4.61h0a5,5,0,0,1-5,5H267.21v-1.6h48.93A3.2,3.2,0,0,0,319.34,254.08Z" style="fill:#92E3A9"></path><path d="M316.65,259.38H267.21a.5.5,0,0,1-.5-.5v-1.6a.5.5,0,0,1,.5-.5h48.93a2.71,2.71,0,0,0,0-5.41H267.21a.5.5,0,0,1-.5-.5v-1.6a.5.5,0,0,1,.5-.5H317a5.11,5.11,0,0,1,5.11,5.11A5.5,5.5,0,0,1,316.65,259.38Zm-48.94-1h48.94a4.5,4.5,0,0,0,4.5-4.5,4.12,4.12,0,0,0-4.11-4.11H267.71v.6h48.43a3.71,3.71,0,0,1,0,7.41H267.71Z" style="fill:#263238"></path><path d="M273.14,260.63a5.65,5.65,0,0,1,0,7h50.22l1.49-3.82-1.91-3.4Z" style="fill:#fff"></path><path d="M323.36,268.14H273.14a.48.48,0,0,1-.44-.27.49.49,0,0,1,0-.52,5.12,5.12,0,0,0,0-6.39.53.53,0,0,1-.07-.54.5.5,0,0,1,.45-.29l49.8-.21h0a.48.48,0,0,1,.43.26l1.92,3.39a.54.54,0,0,1,0,.43l-1.49,3.82A.49.49,0,0,1,323.36,268.14Zm-49.31-1h49l1.28-3.28-1.65-2.94-48.59.21A6,6,0,0,1,274.05,267.14Z" style="fill:#263238"></path><path d="M323.36,267.47v-6.41H276.21v-1.6H339a4.81,4.81,0,1,1,0,9.61H276.21v-1.6Z" style="fill:#263238"></path><path d="M339,269.57H276.21a.5.5,0,0,1-.5-.5v-1.6a.5.5,0,0,1,.5-.5h46.65v-5.41H276.21a.5.5,0,0,1-.5-.5v-1.6a.5.5,0,0,1,.5-.5H339a5.31,5.31,0,1,1,0,10.61Zm-62.24-1H339a4.31,4.31,0,1,0,0-8.61H276.71v.6h46.65a.5.5,0,0,1,.5.5v6.41a.5.5,0,0,1-.5.5H276.71Z" style="fill:#263238"></path><path d="M323.36,264.26h0a3.2,3.2,0,0,0-3.2-3.2H271.23v-1.6h49.83a4.6,4.6,0,0,1,4.61,4.61h0a5,5,0,0,1-5,5H271.23v-1.6h48.93A3.21,3.21,0,0,0,323.36,264.26Z" style="fill:#92E3A9"></path><path d="M320.67,269.57H271.23a.5.5,0,0,1-.5-.5v-1.6a.5.5,0,0,1,.5-.5h48.93a2.71,2.71,0,0,0,0-5.41H271.23a.5.5,0,0,1-.5-.5v-1.6a.5.5,0,0,1,.5-.5h49.83a5.11,5.11,0,0,1,5.11,5.11A5.51,5.51,0,0,1,320.67,269.57Zm-48.94-1h48.94a4.51,4.51,0,0,0,4.5-4.5,4.11,4.11,0,0,0-4.11-4.11H271.73v.6h48.43a3.71,3.71,0,0,1,0,7.41H271.73Z" style="fill:#263238"></path><path d="M318.81,276.34a2.35,2.35,0,0,1-.93-.19,2.4,2.4,0,0,1-1.29-3.15l30-70.92-40.93-46.4a2.41,2.41,0,0,1,3.62-3.18L351.19,200a2.39,2.39,0,0,1,.41,2.52L321,274.87A2.41,2.41,0,0,1,318.81,276.34Z" style="fill:#fff"></path><path d="M318.81,276.84a2.75,2.75,0,0,1-1.13-.23,2.9,2.9,0,0,1-1.55-3.8L346,202.17,305.28,156a2.91,2.91,0,0,1,.26-4.1,2.9,2.9,0,0,1,4.1.26l41.93,47.53a2.91,2.91,0,0,1,.49,3.05l-30.57,72.31A2.91,2.91,0,0,1,318.81,276.84ZM307.46,152.18a1.91,1.91,0,0,0-1.43,3.17L347,201.75a.5.5,0,0,1,.09.52l-30,70.92a1.91,1.91,0,0,0,1,2.5,1.94,1.94,0,0,0,2.5-1l30.57-72.31a1.9,1.9,0,0,0-.32-2l-41.93-47.53a1.89,1.89,0,0,0-1.31-.64Z" style="fill:#263238"></path><path d="M298.52,190.82l.46-.44c10.56-10.56,12.89-25.34,5.21-33s-22.46-5.34-33,5.21c-.16.15-.3.31-.45.46Z" style="fill:#fff"></path><path d="M298.52,191.32a.47.47,0,0,1-.35-.15l-27.79-27.78a.51.51,0,0,1,0-.71l.15-.15.3-.31a33.16,33.16,0,0,1,17.86-9.59c6.4-1,12,.55,15.87,4.38,7.86,7.86,5.52,23-5.22,33.72l-.46.45A.52.52,0,0,1,298.52,191.32ZM271.43,163l27.1,27.1.1-.1c10.34-10.34,12.68-24.84,5.21-32.31-3.6-3.59-8.92-5.05-15-4.09a32.1,32.1,0,0,0-17.31,9.31Z" style="fill:#263238"></path><path d="M303.85,147h7.22a3.67,3.67,0,0,1,3.67,3.67v10.43a0,0,0,0,1,0,0H300.18a0,0,0,0,1,0,0V150.71A3.67,3.67,0,0,1,303.85,147Z" transform="translate(199.01 -172.27) rotate(45)" style="fill:#fff"></path><path d="M307.62,164.72a.49.49,0,0,1-.35-.14L297,154.28a.5.5,0,0,1-.14-.35.52.52,0,0,1,.14-.36l7.38-7.37a4.17,4.17,0,0,1,5.9,0l5.1,5.1a4.18,4.18,0,0,1,0,5.91L308,164.58A.5.5,0,0,1,307.62,164.72ZM298,153.93l9.59,9.59,7-7a3.17,3.17,0,0,0,0-4.49l-5.1-5.1a3.17,3.17,0,0,0-4.49,0Z" style="fill:#263238"></path><path d="M352.11,201.77a4.61,4.61,0,1,0-4.61,4.61A4.6,4.6,0,0,0,352.11,201.77Z" style="fill:#fff"></path><path d="M347.5,206.88a5.11,5.11,0,1,1,5.11-5.11A5.11,5.11,0,0,1,347.5,206.88Zm0-9.22a4.11,4.11,0,1,0,4.11,4.11A4.12,4.12,0,0,0,347.5,197.66Z" style="fill:#263238"></path><path d="M347.44,272.69h-51.8a6.08,6.08,0,0,0-6.08,6.07h63.95A6.07,6.07,0,0,0,347.44,272.69Z" style="fill:#fff"></path><path d="M353.51,279.26H289.56a.5.5,0,0,1-.5-.5,6.58,6.58,0,0,1,6.58-6.57h51.79a6.58,6.58,0,0,1,6.58,6.57A.5.5,0,0,1,353.51,279.26Zm-63.42-1H353a5.59,5.59,0,0,0-5.56-5.07H295.64A5.57,5.57,0,0,0,290.09,278.26Z" style="fill:#263238"></path><rect x="183.88" y="278.21" width="174.75" height="171.61" style="fill:#bababa"></rect><path d="M358.63,450.32H183.88a.5.5,0,0,1-.5-.5V278.21a.5.5,0,0,1,.5-.5H358.63a.51.51,0,0,1,.5.5V449.82A.5.5,0,0,1,358.63,450.32Zm-174.25-1H358.13V278.71H184.38Z" style="fill:#263238"></path><polygon points="190.25 458.25 181.87 458.25 180.47 278.21 191.64 278.21 190.25 458.25" style="fill:#bababa"></polygon><path d="M190.25,458.75h-8.38a.5.5,0,0,1-.5-.5l-1.4-180a.49.49,0,0,1,.15-.36.51.51,0,0,1,.35-.15h11.17a.53.53,0,0,1,.36.15.52.52,0,0,1,.14.36l-1.39,180A.51.51,0,0,1,190.25,458.75Zm-7.89-1h7.39l1.39-179H181Z" style="fill:#263238"></path><polygon points="360.69 458.25 352.32 458.25 350.92 278.21 362.09 278.21 360.69 458.25" style="fill:#bababa"></polygon><path d="M360.69,458.75h-8.37a.5.5,0,0,1-.5-.5l-1.4-180a.49.49,0,0,1,.15-.36.51.51,0,0,1,.35-.15h11.17a.55.55,0,0,1,.36.15.52.52,0,0,1,.14.36l-1.4,180A.5.5,0,0,1,360.69,458.75Zm-7.88-1h7.39l1.39-179H351.42Z" style="fill:#263238"></path><rect x="174.45" y="278.21" width="193.6" height="13.36" style="fill:#263238"></rect><path d="M368.05,292.07H174.45a.5.5,0,0,1-.5-.5V278.21a.5.5,0,0,1,.5-.5h193.6a.5.5,0,0,1,.5.5v13.36A.5.5,0,0,1,368.05,292.07Zm-193.1-1h192.6V278.71H175Z" style="fill:#263238"></path><rect x="170.19" y="278.21" width="202.13" height="9.37" style="fill:#bababa"></rect><path d="M372.32,288.08H170.19a.5.5,0,0,1-.5-.5v-9.37a.5.5,0,0,1,.5-.5H372.32a.51.51,0,0,1,.5.5v9.37A.5.5,0,0,1,372.32,288.08Zm-201.63-1H371.82v-8.37H170.69Z" style="fill:#263238"></path></g></svg>
